<svg xmlns="http://www.w3.org/2000/svg" viewBox="0 0 329.5 257.67"><defs><style>.cls-1{fill:#212527;}</style></defs><title>Asset 2</title><g id="Layer_2" data-name="Layer 2"><g id="图层_1" data-name="图层 1"><path class="cls-1" d="M296.67,82.41V28.24A28.43,28.43,0,0,0,268.05,0H61.45A28.43,28.43,0,0,0,32.83,28.24V82.42C32.75,88,28.18,114.44,0,118v21.67s32.75,5.33,32.83,40v49.77a28.44,28.44,0,0,0,28.62,28.24h206.6a28.44,28.44,0,0,0,28.62-28.24V179.67c1.71-33.92,32.83-40,32.83-40V118C301.24,114.43,296,85.33,296.67,82.41Z"/></g></g></svg>