<?xml version="1.0" encoding="utf-8"?>
<!-- Generator: Adobe Illustrator 22.0.1, SVG Export Plug-In . SVG Version: 6.00 Build 0)  -->
<svg version="1.1" id="图层_1" xmlns="http://www.w3.org/2000/svg" xmlns:xlink="http://www.w3.org/1999/xlink" x="0px" y="0px"
	 viewBox="0 0 1782 636.6" style="enable-background:new 0 0 1782 636.6;" xml:space="preserve">
<style type="text/css">
	.st0{fill:rgba(255,255,255,.5);}
</style>
<g>
	<path class="st0" d="M685.4,156c0,2.2,1.8,4,4,4c2.2,0,4-1.8,4-4c0-2.2-1.8-4-4-4C687.2,152,685.4,153.8,685.4,156z M692.4,156
		c0,1.6-1.4,3-3,3c-1.6,0-3-1.4-3-3s1.4-3,3-3C691.1,153,692.4,154.3,692.4,156z"/>
	<path class="st0" d="M721.9,296.7c0,2.2,1.8,4,4,4c2.2,0,4-1.8,4-4c0-2.2-1.8-4-4-4C723.7,292.7,721.9,294.5,721.9,296.7z
		 M728.9,296.7c0,1.7-1.3,3-3,3c-1.7,0-3-1.3-3-3c0-1.6,1.4-3,3-3C727.5,293.7,728.9,295.1,728.9,296.7z"/>
	<path class="st0" d="M1187.9,122.5c2.3,0,4-1.7,4-4c0-2.1-1.5-3.7-3.5-4V40.6h-1v74c-1.9,0.3-3.5,2-3.5,3.9
		C1183.9,120.7,1185.7,122.5,1187.9,122.5z M1187.4,115.6v0.5h1v-0.6c1.4,0.2,2.5,1.4,2.5,3c0,1.7-1.3,3-3,3c-1.6,0-3-1.4-3-3
		C1184.9,117,1186,115.8,1187.4,115.6z"/>
	<path class="st0" d="M1104.8,174.7c-2.2,0-4,1.8-4,4c0,2.2,1.8,4,4,4c1.1,0,2.2-0.5,3-1.2c0.7-0.7,1.1-1.7,1-2.8
		c0-0.6-0.2-1.2-0.4-1.8l46.3-46V77.8h-1v52.7l-45.9,45.6C1107.1,175.3,1106,174.7,1104.8,174.7z M1107.8,178.7c0,0.8-0.2,1.5-0.7,2
		c-0.6,0.6-1.4,0.9-2.3,0.9c-1.7,0-3-1.3-3-3c0-1.6,1.4-3,3-3c0.9,0,1.7,0.4,2.3,1.1l-0.2,0.2l0.7,0.7l0.1-0.1
		C1107.7,178,1107.8,178.4,1107.8,178.7z"/>
	<path class="st0" d="M1223.2,146.4c-2.2,0-4,1.8-4,4c0,2.2,1.8,4,4,4c2.2,0,4-1.8,4-4c0-0.9-0.3-1.7-0.7-2.3l69.3-68.7l0.1-0.1
		V13.4h-1v65.4l-69.1,68.5C1225.1,146.8,1224.2,146.4,1223.2,146.4z M1226.2,150.4c0,1.7-1.3,3-3,3c-1.6,0-3-1.4-3-3
		c0-1.6,1.4-3,3-3c0.7,0,1.3,0.2,1.9,0.6l-0.9,0.9l0.7,0.7l0.9-0.9C1226,149.2,1226.2,149.8,1226.2,150.4z"/>
	<path class="st0" d="M721,225c0.7,0,1.3-0.2,1.9-0.5l34.2,33.9v64.9c-2.5,0.3-4.4,2.3-4.4,4.8c0,2.7,2.2,4.9,4.9,4.9
		c2.7,0,4.9-2.2,4.9-4.9c0-2.5-1.9-4.6-4.4-4.8V258l-34.4-34.1c0.1-0.1,0.2-0.1,0.2-0.2c0.7-0.8,1.1-1.7,1-2.7c0-2.2-1.8-4-4-4
		c-2.2,0-4,1.8-4,4S718.8,225,721,225z M721,218c1.7,0,3,1.3,3,3c0,0.7-0.2,1.5-0.8,2c-0.1,0.1-0.1,0.1-0.2,0.2l-0.4-0.4l-0.7,0.7
		l0.2,0.2c-0.4,0.1-0.8,0.2-1.2,0.2c-1.6,0-3-1.4-3-3S719.4,218,721,218z"/>
	<path class="st0" d="M1077.4,109c0,2.2,1.8,4,4,4s4-1.8,4-4c0-2.2-1.8-4-4-4C1079.2,105,1077.4,106.8,1077.4,109z M1081.4,106
		c1.7,0,3,1.3,3,3c0,1.7-1.3,3-3,3s-3-1.3-3-3C1078.4,107.4,1079.8,106,1081.4,106z"/>
	<path class="st0" d="M1042.3,84.5c2.2,0,4-1.8,4-4c0-0.9-0.3-1.8-0.8-2.5l35-34.7l-0.7-0.7l-35,34.7c-0.7-0.5-1.5-0.8-2.5-0.8
		c-2.2,0-4,1.8-4,4S1040.1,84.5,1042.3,84.5z M1042.3,77.5c1.7,0,3,1.3,3,3c0,1.6-1.4,3-3,3s-3-1.4-3-3S1040.7,77.5,1042.3,77.5z"/>
	<path class="st0" d="M790.4,48.1c2.2,0,4-1.8,4-4c0-2.2-1.8-4-4-4c-2.2,0-4,1.8-4,4S788.2,48.1,790.4,48.1z M790.4,41.1
		c1.7,0,3,1.3,3,3c0,1.7-1.3,3-3,3c-1.6,0-3-1.4-3-3S788.8,41.1,790.4,41.1z"/>
	<path class="st0" d="M864,48.1c2.2,0,4-1.8,4-4c0-2.2-1.8-4-4-4c-2.2,0-4,1.8-4,4S861.8,48.1,864,48.1z M864,41.1c1.7,0,3,1.3,3,3
		c0,1.7-1.3,3-3,3c-1.6,0-3-1.4-3-3S862.4,41.1,864,41.1z"/>
	<path class="st0" d="M863.2,156.5c2.2,0,4-1.8,4-4c0-2-1.6-3.7-3.5-3.9V81.5h-1v67.1c-1.9,0.3-3.5,2-3.5,3.9
		C859.2,154.7,861,156.5,863.2,156.5z M863.2,149.5c1.6,0,3,1.4,3,3s-1.4,3-3,3c-1.7,0-3-1.3-3-3
		C860.2,150.9,861.6,149.5,863.2,149.5z"/>
	<path class="st0" d="M1116.2,508.5c2.2,0,4-1.8,4-4s-1.8-4-4-4c-2.2,0-4,1.8-4,4c0,0.8,0.3,1.6,0.7,2.3l-35.2,34.9h-63.9
		l-38.2,37.8c-0.8-0.5-1.7-0.8-2.6-0.8c-2.7,0-4.9,2.2-4.9,4.9c0,2.7,2.2,4.9,4.9,4.9s4.9-2.2,4.9-4.9c0-1.4-0.6-2.6-1.5-3.5
		l37.8-37.4h63.9l35.5-35.2C1114.3,508.1,1115.2,508.5,1116.2,508.5z M1113.2,504.5c0-1.6,1.4-3,3-3c1.7,0,3,1.3,3,3s-1.3,3-3,3
		c-0.7,0-1.4-0.3-1.9-0.7l0.1-0.1l-0.7-0.7l-0.1,0.1C1113.4,505.6,1113.2,505.1,1113.2,504.5z"/>
	<path class="st0" d="M865.9,328.4c-2.2,0-4,1.8-4,4c0,2.2,1.8,4,4,4c2.2,0,4-1.8,4-4S868.1,328.4,865.9,328.4z M865.9,335.4
		c-1.7,0-3-1.3-3-3c0-1.6,1.4-3,3-3c1.6,0,3,1.4,3,3C868.9,334,867.5,335.4,865.9,335.4z"/>
	<path class="st0" d="M863.7,577.9V471.5l-70.3-69.7V333c2.5-0.3,4.4-2.3,4.4-4.8c0-2.7-2.2-4.9-4.9-4.9c-2.8,0-4.9,2.2-4.9,4.9
		c0,2.5,1.9,4.6,4.4,4.8v69.2l70.3,69.7v105.9c-1.9,0.3-3.5,2-3.5,3.9c0,2.2,1.8,4,4,4c2.2,0,4-1.8,4-4
		C867.2,579.8,865.6,578.1,863.7,577.9z M863.2,584.8c-1.7,0-3-1.3-3-3c0-1.6,1.4-3,3-3c1.6,0,3,1.4,3,3S864.8,584.8,863.2,584.8z"
		/>
	<path class="st0" d="M794.9,471.2c-0.7,0-1.3,0.2-1.9,0.5l-39.2-38.8v-68.4l-102.9-102c0.7-0.8,1.1-1.9,1.1-3.1
		c0-2.7-2.2-4.9-4.9-4.9c-2.7,0-4.9,2.3-4.9,4.9c0,2.7,2.2,4.9,4.9,4.9c1.2,0,2.2-0.4,3.1-1.1l102.6,101.7v68.4l39.4,39
		c-0.8,0.7-1.3,1.8-1.3,2.9c0,2.2,1.8,4,4,4c2.2,0,4-1.8,4-4C798.9,473,797.1,471.2,794.9,471.2z M794.9,478.2c-1.7,0-3-1.3-3-3
		c0-1.6,1.4-3,3-3c1.6,0,3,1.4,3,3C797.9,476.9,796.6,478.2,794.9,478.2z"/>
	<path class="st0" d="M863.7,435.6v-71.1l-36.6-36.3V263c2.5-0.3,4.4-2.3,4.4-4.8c0-2.7-2.2-4.9-4.9-4.9c-2.7,0.1-4.9,2.2-4.9,4.9
		c0,2.5,1.9,4.6,4.4,4.8v65.6l36.6,36.3v70.6c-1.9,0.3-3.5,2-3.5,3.9c0,2.2,1.8,4,4,4c2.2,0,4-1.8,4-4
		C867.2,437.5,865.6,435.8,863.7,435.6z M863.2,442.5c-1.7,0-3-1.3-3-3c0-1.6,1.4-3,3-3c1.6,0,3,1.4,3,3
		C866.2,441.2,864.9,442.5,863.2,442.5z"/>
	<path class="st0" d="M793.4,577.9v-70.7l-73.2-72.6v-59.1c2.5-0.3,4.4-2.3,4.4-4.8c0-2.7-2.2-4.9-4.9-4.9c-2.7,0-4.9,2.2-4.9,4.9
		c0,2.5,1.9,4.6,4.4,4.8V435l73.2,72.6v70.2c-1.9,0.3-3.5,2-3.5,3.9c0,2.2,1.8,4,4,4c2.2,0,4-1.8,4-4
		C796.9,579.8,795.3,578.1,793.4,577.9z M792.9,584.8c-1.7,0-3-1.3-3-3c0-1.6,1.4-3,3-3c1.6,0,3,1.4,3,3S794.5,584.8,792.9,584.8z"
		/>
	<path class="st0" d="M1461.5,28.8c2.2,0,4-1.8,4-4c0-2.2-1.8-4-4-4c-2.2,0-4,1.8-4,4S1459.3,28.8,1461.5,28.8z M1461.5,21.8
		c1.7,0,3,1.3,3,3c0,1.6-1.4,3-3,3s-3-1.4-3-3S1459.9,21.8,1461.5,21.8z"/>
	<path class="st0" d="M1292.5,254.2c-2.2,0-4,1.8-4,4c0,2.2,1.8,4,4,4s4-1.8,4-4c0-0.9-0.3-1.7-0.8-2.4l70.7-70.2l0.1-0.1v-72.7
		l68.3-67.6c0.7,0.8,1.7,1.2,2.9,1.2c2.2,0,4-1.8,4-4c0-2.2-1.8-4-4-4s-4,1.8-4,4c0,0.7,0.2,1.4,0.5,2l-68.7,68v72.7l-70.5,70
		C1294.3,254.6,1293.4,254.2,1292.5,254.2z M1434.7,42.4c0-1.6,1.4-3,3-3s3,1.4,3,3c0,1.7-1.3,3-3,3c-0.9,0-1.6-0.4-2.2-0.9l0.2-0.2
		l-0.7-0.7l-0.1,0.1C1434.8,43.3,1434.7,42.8,1434.7,42.4z M1295.5,258.2c0,1.7-1.3,3-3,3c-1.7,0-3-1.3-3-3c0-1.6,1.4-3,3-3
		c0.7,0,1.3,0.2,1.8,0.6l-0.8,0.8l0.7,0.7l0.8-0.8C1295.3,257,1295.5,257.6,1295.5,258.2z"/>
	<path class="st0" d="M573.8,501.4c-2,0-3.7,1.6-3.9,3.5h-32.1l-33.9-33.6l-0.1-0.1h-33.1c-0.3-2.5-2.3-4.4-4.8-4.4
		c-2.7,0.1-4.9,2.2-4.9,4.9s2.2,4.9,4.9,4.9c2.5,0,4.6-1.9,4.8-4.4h32.6l33.9,33.6l0.1,0.1h32.6c0.2,2,1.9,3.5,4,3.5
		c2.2,0,4-1.8,4-4S576,501.4,573.8,501.4z M573.8,508.4c-1.5,0-2.7-1.1-3-2.5h0.4v-1h-0.3c0.2-1.4,1.5-2.5,2.9-2.5c1.6,0,3,1.4,3,3
		C576.8,507,575.4,508.4,573.8,508.4z"/>
	<path class="st0" d="M1405.5,360.7c-2.2,0-4,1.8-4,4c0,0.9,0.3,1.7,0.8,2.4l-0.6-0.7l-66.1,65.6c-0.8-0.6-1.8-0.9-2.8-0.9
		c-2.7,0-4.9,2.2-4.9,4.9s2.2,4.9,4.9,4.9c2.7,0,4.9-2.2,4.9-4.9c0-1.3-0.5-2.5-1.3-3.3l66.1-65.5c0.7,0.9,1.9,1.5,3.2,1.5
		c2.2,0,4-1.8,4-4S1407.7,360.7,1405.5,360.7z M1405.5,367.7c-1.7,0-3-1.3-3-3c0-1.6,1.4-3,3-3s3,1.4,3,3
		C1408.5,366.3,1407.1,367.7,1405.5,367.7z"/>
	<path class="st0" d="M1507.7,153.4c-2.2,0-4,1.8-4,4c0,2.2,1.8,4,4,4c2.2,0,4-1.8,4-4C1511.7,155.2,1509.9,153.4,1507.7,153.4z
		 M1507.7,160.4c-1.6,0-3-1.4-3-3c0-1.6,1.4-3,3-3c1.7,0,3,1.3,3,3C1510.7,159.1,1509.4,160.4,1507.7,160.4z"/>
	<path class="st0" d="M1512.6,250.7c-2.2,0-4,1.8-4,4c0,1.1,0.4,2.1,1.1,2.8l-72.1,71.4h-27.2c-0.3-2.5-2.3-4.4-4.8-4.4
		c-2.7,0-4.9,2.2-4.9,4.9c0,2.7,2.2,4.9,4.9,4.9c2.5,0,4.6-1.9,4.8-4.4h27.7l72.5-71.8c0.6,0.4,1.3,0.6,2.1,0.6c1.1,0,2.2-0.5,3-1.2
		c0.7-0.7,1.1-1.7,1-2.8C1516.6,252.5,1514.8,250.7,1512.6,250.7z M1514.9,256.8c-0.6,0.6-1.4,0.9-2.3,0.9c-0.5,0-1-0.1-1.4-0.3l0,0
		l-0.7-0.7l-0.1,0.1c-0.5-0.5-0.8-1.3-0.8-2.1c0-1.6,1.4-3,3-3s3,1.4,3,3C1515.6,255.5,1515.4,256.2,1514.9,256.8z"/>
	<path class="st0" d="M1618.9,50.4c2.2,0,4-1.8,4-4c0-2.2-1.8-4-4-4c-2.2,0-4,1.8-4,4C1614.9,48.6,1616.7,50.4,1618.9,50.4z
		 M1618.9,43.4c1.7,0,3,1.3,3,3c0,1.7-1.3,3-3,3c-1.6,0-3-1.4-3-3C1615.9,44.8,1617.3,43.4,1618.9,43.4z"/>
	<path class="st0" d="M215,46.4c2.3,0,4-1.7,4-4c0-2.2-1.8-4-4-4c-2.2,0-4,1.8-4,4C211,44.6,212.8,46.4,215,46.4z M215,39.4
		c1.7,0,3,1.3,3,3c0,1.7-1.3,3-3,3c-1.6,0-3-1.4-3-3C212,40.8,213.4,39.4,215,39.4z"/>
	<path class="st0" d="M1333.2,368.6c0.7-0.8,1.1-1.7,1-2.7c0-1-0.4-2-1-2.7l70.6-69.9v-36.9l67.2-66.7c0.8,0.5,1.7,0.9,2.8,0.9
		c2.7,0,4.9-2.2,4.9-4.9c0-2.7-2.2-4.9-4.9-4.9c-2.7,0.1-4.9,2.2-4.9,4.9c0,1.3,0.5,2.5,1.4,3.4l-67.3,66.7l-0.1,0.1v36.9
		l-70.4,69.7c-0.6-0.4-1.4-0.7-2.2-0.7c-2.2,0-4,1.8-4,4c0,2.2,1.8,4,4,4C1331.3,369.9,1332.4,369.4,1333.2,368.6z M1327.2,365.9
		c0-1.6,1.4-3,3-3c0.5,0,1.1,0.2,1.5,0.4l-0.1,0.1l0.7,0.7l0.2-0.2c0.5,0.5,0.7,1.2,0.7,2c0,0.7-0.2,1.5-0.8,2
		c-0.6,0.6-1.4,0.9-2.2,0.9C1328.6,368.9,1327.2,367.5,1327.2,365.9z"/>
	<path class="st0" d="M1221,84.5c2.2,0,4-1.8,4-4s-1.8-4-4-4s-4,1.8-4,4C1217,82.7,1218.8,84.5,1221,84.5z M1221,77.5
		c1.6,0,3,1.4,3,3s-1.4,3-3,3c-1.7,0-3-1.3-3-3C1218,78.9,1219.4,77.5,1221,77.5z"/>
	<path class="st0" d="M1575.5,149.2c0,2.2,1.8,4,4,4s4-1.8,4-4c0-2.2-1.8-4-4-4C1577.3,145.2,1575.5,147,1575.5,149.2z
		 M1579.5,146.2c1.7,0,3,1.3,3,3s-1.3,3-3,3c-1.7,0-3-1.3-3-3C1576.5,147.6,1577.9,146.2,1579.5,146.2z"/>
	<path class="st0" d="M587,211.4c0,2.2,1.8,4,4,4c1.1,0,2.2-0.5,3-1.3c0.7-0.8,1.1-1.7,1-2.7c0-2.2-1.8-4-4-4
		C588.8,207.4,587,209.2,587,211.4z M591,208.4c1.6,0,3,1.4,3,3c0,0.7-0.2,1.5-0.8,2c-0.6,0.6-1.4,0.9-2.2,0.9c-1.7,0-3-1.3-3-3
		C588,209.8,589.4,208.4,591,208.4z"/>
	<path class="st0" d="M1098,460.8c1.1,0,2.2-0.5,3-1.3c0.7-0.8,1.1-1.7,1-2.7c0-2.2-1.8-4-4-4s-4,1.8-4,4c0,1,0.4,2,1,2.7
		l-46.1,45.7c-0.7-0.4-1.5-0.6-2.3-0.6c-2.7,0-4.9,2.2-4.9,4.9s2.2,4.9,4.9,4.9c2.7,0,4.9-2.2,4.9-4.9c0-1.5-0.7-2.8-1.8-3.7
		l46-45.6C1096.4,460.6,1097.2,460.8,1098,460.8z M1095,456.8c0-1.6,1.4-3,3-3s3,1.4,3,3c0,0.7-0.2,1.5-0.8,2
		c-0.6,0.6-1.4,0.9-2.2,0.9c-0.7,0-1.3-0.2-1.8-0.6l-0.5-0.5l0,0C1095.3,458.2,1095,457.6,1095,456.8z"/>
	<path class="st0" d="M569.8,472.3c0,2.2,1.8,4,4,4c2.2,0,4-1.8,4-4s-1.8-4-4-4C571.6,468.3,569.8,470.1,569.8,472.3z M576.8,472.3
		c0,1.6-1.4,3-3,3c-1.7,0-3-1.3-3-3c0-1.6,1.4-3,3-3C575.4,469.3,576.8,470.7,576.8,472.3z"/>
	<path class="st0" d="M648.1,511.4c2.2,0,4-1.8,4-4s-1.8-4-4-4c-0.7,0-1.4,0.2-2,0.6l-71.4-70.7h-71l-65.1-64.6
		c0.6-0.8,0.9-1.8,0.9-2.8c0-2.7-2.2-4.9-4.9-4.9c-2.7,0-4.9,2.2-4.9,4.9c0,2.7,2.2,4.9,4.9,4.9c1.3,0,2.4-0.5,3.3-1.3l65.2,64.7
		l0.1,0.1h71l71,70.3c-0.7,0.7-1.2,1.7-1.2,2.8C644.1,509.6,645.9,511.4,648.1,511.4z M651.1,507.4c0,1.7-1.3,3-3,3
		c-1.6,0-3-1.4-3-3c0-1.6,1.4-3,3-3C649.8,504.4,651.1,505.7,651.1,507.4z"/>
	<path class="st0" d="M611.1,38.8V186l33.3,33c-0.7,0.8-1.1,1.9-1.1,3c0,2.7,2.2,4.9,4.9,4.9c2.7,0,4.9-2.2,4.9-4.9
		c0-2.7-2.2-4.9-4.9-4.9c-1.2,0-2.2,0.5-3.1,1.2l-33-32.8V38.8c2-0.2,3.5-1.9,3.5-4c0-2.2-1.8-4-4-4c-2.2,0-4,1.8-4,4
		C607.6,36.9,609.1,38.5,611.1,38.8z M611.6,31.8c1.6,0,3,1.4,3,3c0,1.7-1.3,3-3,3s-3-1.3-3-3C608.6,33.2,610,31.8,611.6,31.8z"/>
	<path class="st0" d="M609.4,231.2v71.5l83.2,82.5c-0.6,0.7-0.9,1.5-0.9,2.5c0,2.2,1.8,4,4,4c1.1,0,2.2-0.5,3-1.3
		c0.7-0.8,1.1-1.7,1-2.7c0-2.2-1.8-4-4-4c-0.9,0-1.7,0.3-2.4,0.8l-82.9-82.2v-71c1.9-0.3,3.5-2,3.5-3.9c0-2.2-1.8-4-4-4
		c-2.2,0-4,1.8-4,4C605.9,229.3,607.4,230.9,609.4,231.2z M695.7,384.6c1.6,0,3,1.4,3,3c0,0.7-0.2,1.5-0.8,2
		c-0.6,0.6-1.4,0.9-2.2,0.9c-1.7,0-3-1.3-3-3c0-0.7,0.2-1.3,0.6-1.8l0.6,0.6l0.7-0.7l-0.6-0.6C694.5,384.8,695.1,384.6,695.7,384.6z
		 M609.9,224.2c1.6,0,3,1.4,3,3c0,1.5-1.1,2.7-2.5,2.9v-0.4h-1v0.5c-1.4-0.2-2.5-1.4-2.5-3C606.9,225.6,608.3,224.2,609.9,224.2z"/>
	<path class="st0" d="M567.4,123.7c2.2,0,4-1.8,4-4c0-2-1.6-3.7-3.5-3.9V40.6h-1v75.2c-1.9,0.3-3.5,2-3.5,3.9
		C563.4,121.9,565.2,123.7,567.4,123.7z M567.4,116.7c1.6,0,3,1.4,3,3c0,1.6-1.4,3-3,3c-1.7,0-3-1.3-3-3
		C564.4,118.1,565.8,116.7,567.4,116.7z"/>
	<path class="st0" d="M1295.6,185.7c0,0.8,0.2,1.5,0.6,2.2l-105.9,105l-0.1,0.1v70.7l-69.7,69.1c-0.9-1-2.2-1.7-3.7-1.7
		c-2.7,0.1-4.9,2.2-4.9,4.9s2.2,4.9,4.9,4.9c2.7,0,4.9-2.2,4.9-4.9c0-0.9-0.2-1.6-0.6-2.3l70-69.4l0.1-0.1v-70.7l105.7-104.8
		c0.7,0.7,1.7,1.1,2.7,1.1c2.2,0,4-1.8,4-4c0-2.2-1.8-4-4-4C1297.4,181.7,1295.6,183.5,1295.6,185.7z M1302.6,185.7c0,1.7-1.3,3-3,3
		c-0.8,0-1.5-0.3-2-0.8l0.7-0.7l-0.7-0.7l-0.6,0.6c-0.2-0.4-0.4-0.9-0.4-1.4c0-1.6,1.4-3,3-3C1301.3,182.7,1302.6,184,1302.6,185.7z
		"/>
	<path class="st0" d="M529.1,152.5c0,2.2,1.8,4,4,4c2.2,0,4-1.8,4-4c0-2.2-1.8-4-4-4c-0.8,0-1.5,0.2-2.2,0.7l0.2-0.2l-70.9-70.2
		V13.4h-1v65.8l71.1,70.4C529.6,150.3,529.1,151.4,529.1,152.5z M533.1,149.5c1.7,0,3,1.3,3,3c0,1.7-1.3,3-3,3c-1.6,0-3-1.4-3-3
		S531.5,149.5,533.1,149.5z"/>
	<path class="st0" d="M424.8,49.4c2.3,0,4-1.7,4-4c0-2.2-1.8-4-4-4c-2.2,0-4,1.8-4,4C420.8,47.6,422.6,49.4,424.8,49.4z M424.8,42.4
		c1.7,0,3,1.3,3,3c0,1.7-1.3,3-3,3c-1.6,0-3-1.4-3-3C421.8,43.8,423.2,42.4,424.8,42.4z"/>
	<path class="st0" d="M1315.6,119c2.2,0,4-1.8,4-4c0-2.2-1.8-4-4-4c-2.2,0-4,1.8-4,4C1311.6,117.2,1313.4,119,1315.6,119z
		 M1315.6,112c1.7,0,3,1.3,3,3c0,1.7-1.3,3-3,3c-1.7,0-3-1.3-3-3C1312.6,113.4,1314,112,1315.6,112z"/>
	<path class="st0" d="M293.8,29.3c2.2,0,4-1.8,4-4c0-2.2-1.8-4-4-4c-2.2,0-4,1.8-4,4C289.8,27.5,291.6,29.3,293.8,29.3z M293.8,22.3
		c1.7,0,3,1.3,3,3c0,1.6-1.4,3-3,3c-1.7,0-3-1.3-3-3C290.8,23.7,292.2,22.3,293.8,22.3z"/>
	<path class="st0" d="M900.5,576.9c-2.7,0-4.9,2.2-4.9,4.9s2.2,4.9,4.9,4.9s4.9-2.2,4.9-4.9S903.2,576.9,900.5,576.9z"/>
	<path class="st0" d="M754.5,22.8V149c-1.3,0.7-2.2,2-2.2,3.5c0,2.2,1.8,4,4,4c2.2,0,4-1.8,4-4s-1.8-4-4-4c-0.3,0-0.5,0-0.8,0.1
		V23.1c0.3,0,0.5,0.1,0.8,0.1c2.7,0,4.9-2.2,4.9-4.9c0-2.7-2.2-4.9-4.9-4.9s-4.9,2.2-4.9,4.9C751.4,20.4,752.7,22.1,754.5,22.8z
		 M759.3,152.5c0,1.6-1.4,3-3,3c-1.7,0-3-1.3-3-3c0-1.6,1.4-3,3-3C757.9,149.5,759.3,150.9,759.3,152.5z"/>
	<path class="st0" d="M721.9,48.9v104.6l70.5,69.9v66.7c-1.7,0.5-3,2-3,3.9c0,2.2,1.8,4,4,4c2.2,0,4-1.8,4-4c0-2.2-1.8-4-4-4h0v-67
		l-70.5-69.9V48.9c2.5-0.3,4.4-2.3,4.4-4.8c0-2.7-2.2-4.9-4.9-4.9c-2.8,0-4.9,2.2-4.9,4.9C717.5,46.6,719.4,48.7,721.9,48.9z
		 M796.4,294c0,1.6-1.4,3-3,3c-1.6,0-3-1.4-3-3s1.4-3,3-3C795.1,291,796.4,292.3,796.4,294z"/>
	<path class="st0" d="M680.9,114.8c0,2.7,2.2,4.9,4.9,4.9s4.9-2.2,4.9-4.9c0-2.7-2.2-4.9-4.9-4.9c-0.1,0-0.2,0-0.3,0V56.4
		c0.1,0,0.2,0,0.3,0c1.1,0,2.2-0.5,3-1.2c0.7-0.7,1.1-1.7,1-2.8c0-2.2-1.8-4-4-4c-2.2,0-4,1.8-4,4c0,1.7,1.1,3.2,2.7,3.8v54
		C682.4,110.7,680.9,112.6,680.9,114.8z M682.8,52.4c0-1.6,1.4-3,3-3c1.7,0,3,1.3,3,3c0,0.8-0.2,1.5-0.7,2c-0.6,0.6-1.4,0.9-2.3,0.9
		C684.2,55.4,682.8,54,682.8,52.4z"/>
	<path class="st0" d="M647.7,50.2v65.9l37.7,37.4l0.7-0.7l-37.5-37.2V50.2c2.5-0.3,4.4-2.3,4.4-4.8c0-2.7-2.2-4.9-4.9-4.9
		c-2.7,0.1-4.9,2.2-4.9,4.9C643.3,47.9,645.2,50,647.7,50.2z"/>
	<path class="st0" d="M247.5,46.4c0.8,0,1.6-0.2,2.3-0.6L350,145.1c-0.7,0.7-1.1,1.7-1.1,2.7c0,2.2,1.8,4,4,4c2.2,0,4-1.8,4-4
		c0-2.2-1.8-4-4-4c-0.8,0-1.5,0.2-2.1,0.7L250.7,45.2c1.1-0.9,1.7-2.2,1.7-3.7c0-2.7-2.2-4.9-4.9-4.9s-4.9,2.2-4.9,4.9
		C242.6,44.2,244.8,46.4,247.5,46.4z M352.9,144.8c1.6,0,3,1.4,3,3c0,1.7-1.3,3-3,3s-3-1.3-3-3c0-0.8,0.3-1.5,0.8-2l0.6,0.5l0.7-0.7
		l-0.5-0.5C351.9,144.9,352.4,144.8,352.9,144.8z"/>
	<path class="st0" d="M179.3,46.4c2.7,0,4.9-2.2,4.9-4.9c0-2.7-2.2-4.9-4.9-4.9c-2.7,0-4.9,2.2-4.9,4.9
		C174.4,44.2,176.6,46.4,179.3,46.4z"/>
	<path class="st0" d="M400.7,335c2.7,0,4.9-2.2,4.9-4.9c0-2.7-2.2-4.9-4.9-4.9c-1.5,0-2.8,0.7-3.7,1.7l-34.1-33.7
		c0.7-0.7,1.1-1.7,1.1-2.7c0-2.2-1.8-4-4-4c-2.2,0-4,1.8-4,4c0,2.2,1.8,4,4,4c0.8,0,1.5-0.2,2.2-0.7l34.3,33.9
		c-0.4,0.7-0.6,1.5-0.6,2.3C395.8,332.8,398,335,400.7,335z M360,293.5c-1.7,0-3-1.3-3-3c0-1.6,1.4-3,3-3c1.6,0,3,1.4,3,3
		c0,0.8-0.3,1.5-0.8,2l-1-0.9l-0.7,0.7l0.9,0.9C361,293.4,360.5,293.5,360,293.5z"/>
	<path class="st0" d="M432.7,434.6c-1.2,0-2.2,0.5-3.1,1.2L322.4,329.4v-72l-69.3-68.6c0.1-0.1,0.3-0.2,0.4-0.4
		c0.7-0.7,1.1-1.7,1-2.8c0-2.2-1.8-4-4-4c-2.2,0-4,1.8-4,4c0,2.2,1.8,4,4,4c0.6,0,1.1-0.1,1.7-0.3l69.1,68.4v72l107.5,106.6
		c-0.7,0.8-1.1,1.9-1.1,3c0,2.7,2.2,4.9,4.9,4.9c2.7,0,4.9-2.2,4.9-4.9S435.4,434.6,432.7,434.6z M250.6,188.7c-1.7,0-3-1.3-3-3
		c0-1.6,1.4-3,3-3c1.6,0,3,1.4,3,3c0,0.8-0.2,1.5-0.7,2c-0.1,0.1-0.3,0.2-0.4,0.4l-0.5-0.5l-0.7,0.7l0.2,0.2
		C251.2,188.6,250.9,188.7,250.6,188.7z"/>
	<path class="st0" d="M318,46.4c1,0,2-0.3,2.8-0.9l67.9,67.3v72.7L504.2,300c-0.8,0.7-1.2,1.7-1.2,2.9c0,2.2,1.8,4,4,4
		c2.3,0,4-1.7,4-4c0-2.2-1.8-4-4-4c-0.7,0-1.4,0.2-2,0.5L389.7,185.1v-72.7l-68.2-67.5c0.9-0.9,1.4-2.1,1.4-3.4
		c0-2.7-2.2-4.9-4.9-4.9c-2.7,0.1-4.9,2.3-4.9,4.9C313.1,44.2,315.3,46.4,318,46.4z M507,299.9c1.6,0,3,1.4,3,3c0,1.7-1.3,3-3,3
		c-1.7,0-3-1.3-3-3c0-0.8,0.4-1.6,0.9-2.2l0.3,0.3l0.7-0.7l-0.2-0.2C506.2,300,506.6,299.9,507,299.9z"/>
	<circle class="st0" cx="437.6" cy="113.4" r="4.9"/>
	<path class="st0" d="M459.1,137.6c1,0,1.9-0.3,2.6-0.8l95.7,94.8c-0.6,0.7-1,1.6-1,2.6c0,2.2,1.8,4,4,4c2.2,0,4-1.8,4-4
		c0-2.2-1.8-4-4-4c-0.8,0-1.6,0.3-2.2,0.7l-95.7-94.8c0.9-0.9,1.5-2.1,1.5-3.5c0-2.7-2.2-4.9-4.9-4.9c-2.7,0-4.9,2.2-4.9,4.9
		C454.2,135.4,456.4,137.6,459.1,137.6z M560.4,231.3c1.7,0,3,1.3,3,3c0,1.6-1.4,3-3,3s-3-1.4-3-3c0-0.7,0.3-1.4,0.7-1.9l0.3,0.3
		l0.7-0.7l-0.2-0.2C559.4,231.5,559.9,231.3,560.4,231.3z"/>
	<path class="st0" d="M494.3,45.5c0.9,0,1.8-0.3,2.5-0.7l33,32.7c-1.1,0.7-1.8,2-1.8,3.3c0,2.2,1.8,4,4,4c1.1,0,2.2-0.5,3-1.3
		c0.7-0.8,1.1-1.7,1-2.7c0-2.2-1.8-4-4-4c-0.4,0-0.9,0.1-1.3,0.2l-33.1-32.8c1-0.9,1.6-2.2,1.6-3.6c0-2.7-2.2-4.9-4.9-4.9
		c-2.7,0-4.9,2.2-4.9,4.9C489.4,43.3,491.6,45.5,494.3,45.5z M535,80.8c0,0.7-0.2,1.5-0.8,2c-0.6,0.6-1.4,0.9-2.2,0.9
		c-1.7,0-3-1.3-3-3c0-1.6,1.4-3,3-3C533.6,77.8,535,79.2,535,80.8z"/>
	<path class="st0" d="M510.5,268.6c2.7,0,4.9-2.2,4.9-4.9c0-2.7-2.2-4.9-4.9-4.9c-1.1,0-2.1,0.5-3,1.1L466.3,219v-42.7
		c0.9-0.1,1.8-0.5,2.5-1.2c0.7-0.8,1.1-1.7,1-2.7c0-2.2-1.8-4-4-4c-2.2,0-4,1.8-4,4c0,2.1,1.5,3.7,3.5,4v43.2l41.5,41.2
		c-0.7,0.9-1.2,1.9-1.2,3.1C505.6,266.4,507.8,268.6,510.5,268.6z M462.8,172.3c0-1.6,1.4-3,3-3c1.7,0,3,1.3,3,3
		c0,0.7-0.2,1.5-0.8,2c-0.6,0.6-1.4,0.9-2.2,0.9C464.1,175.3,462.8,174,462.8,172.3z"/>
	<path class="st0" d="M539.5,261c0-2.7-2.2-4.9-4.9-4.9c-2.7,0.1-4.9,2.3-4.9,4.9c0,2.7,2.2,4.9,4.9,4.9
		C537.3,265.9,539.5,263.7,539.5,261z"/>
	<path class="st0" d="M575.1,261c0-2.7-2.2-4.9-4.9-4.9c-2.7,0.1-4.9,2.3-4.9,4.9c0,2.7,2.2,4.9,4.9,4.9c0.2,0,0.3,0,0.5-0.1v56.4
		l41.7,41.3c-0.4,0.6-0.7,1.4-0.7,2.2c0,2.2,1.8,4,4,4c2.2,0,4-1.8,4-4c0-2.2-1.8-4-4-4c-1,0-1.9,0.4-2.6,1.1l-41.4-41v-56.2
		C573.7,265,575.1,263.2,575.1,261z M618.7,365.7c0,1.7-1.3,3-3,3c-1.7,0-3-1.3-3-3c0-0.8,0.3-1.5,0.8-2l0.2-0.2
		c0.5-0.5,1.2-0.8,2-0.8C617.3,362.7,618.7,364.1,618.7,365.7z"/>
	<path class="st0" d="M563.4,151v32.6l24.8,24.6l0.7-0.7l-24.6-24.4v-32.3c2.4-0.3,4.2-2.4,4.2-4.8c0-2.7-2.2-4.9-4.9-4.9
		c-2.7,0-4.9,2.2-4.9,4.9C558.8,148.7,560.8,150.8,563.4,151z"/>
	<path class="st0" d="M520.3,396.7c0,2.7,2.2,4.9,4.9,4.9c2.7,0,4.9-2.2,4.9-4.9s-2.2-4.9-4.9-4.9c-1.2,0-2.3,0.5-3.2,1.2
		L388.1,260.3v-38.4l-73.3-72.7c0.5-0.6,0.7-1.4,0.7-2.3c0-2.2-1.8-4-4-4c-2.2,0-4,1.8-4,4c0,2.2,1.8,4,4,4c1,0,1.9-0.4,2.6-1
		l73,72.4v38.4l134.2,133C520.7,394.6,520.3,395.6,520.3,396.7z M311.5,149.9c-1.7,0-3-1.3-3-3c0-1.6,1.4-3,3-3c1.6,0,3,1.4,3,3
		C314.5,148.5,313.1,149.9,311.5,149.9z"/>
	<path class="st0" d="M631.5,423.3c-2.7,0.1-4.9,2.2-4.9,4.9s2.2,4.9,4.9,4.9c1.2,0,2.4-0.5,3.2-1.3l47.6,47.2
		c-0.5,0.7-0.9,1.5-0.9,2.4c0,2.2,1.8,4,4,4c2.2,0,4-1.8,4-4s-1.8-4-4-4c-0.9,0-1.7,0.3-2.4,0.9l-47.6-47.3c0.6-0.8,1-1.8,1-2.9
		C636.4,425.5,634.2,423.3,631.5,423.3z M685.5,478.5c1.6,0,3,1.4,3,3s-1.4,3-3,3c-1.7,0-3-1.3-3-3
		C682.5,479.9,683.9,478.5,685.5,478.5z"/>
	<path class="st0" d="M752.7,522.6c-1.2,0-2.2,0.4-3.1,1.1l-32.1-31.8v-35.4l-71.3-70.7l-0.5,0.5c0.4-0.6,0.7-1.4,0.7-2.2
		c0-2.2-1.8-4-4-4c-2.2,0-4,1.8-4,4c0,2.2,1.8,4,4,4c1.3,0,2.4-0.6,3.2-1.6l71,70.4v35.4l32.4,32.1c-0.7,0.8-1.1,1.9-1.1,3.1
		c0,2.7,2.2,4.9,4.9,4.9c2.7,0,4.9-2.2,4.9-4.9S755.4,522.6,752.7,522.6z M642.3,387.1c-1.7,0-3-1.3-3-3c0-1.6,1.4-3,3-3
		c1.6,0,3,1.4,3,3S643.9,387.1,642.3,387.1z"/>
	<path class="st0" d="M752.7,573.8c-1,0-2,0.4-2.8,0.9l-31.9-31.6l-0.1-0.1H646l-68.7-68.1l-0.7,0.7l68.8,68.2l0.1,0.1h71.9
		l31.7,31.4c-0.8,0.9-1.4,2-1.4,3.3c0,2.7,2.2,4.9,4.9,4.9c2.7,0,4.9-2.2,4.9-4.9S755.4,573.8,752.7,573.8z"/>
	<path class="st0" d="M648.2,155.3c1.5,0,2.8-0.7,3.7-1.7l34,33.7v71.2l36,35.7l0.7-0.7l-35.8-35.5v-71.2l-34.5-34.1
		c0.4-0.7,0.7-1.5,0.7-2.4c0-2.7-2.2-4.9-4.9-4.9c-2.7,0-4.9,2.2-4.9,4.9C643.3,153.1,645.5,155.3,648.2,155.3z"/>
	<path class="st0" d="M902.3,147.6c-2.7,0-4.9,2.2-4.9,4.9c0,2.7,2.2,4.9,4.9,4.9c2.7,0,4.9-2.2,4.9-4.9c0-1.4-0.6-2.7-1.6-3.6
		l67.2-66.5l-0.7-0.7l-67.3,66.6C904,147.9,903.2,147.6,902.3,147.6z"/>
	<path class="st0" d="M1045.8,324.7c-0.1,0-0.2,0-0.3,0v-31.1c0.1,0,0.2,0,0.3,0c2.3,0,4-1.7,4-4c0-2.2-1.8-4-4-4c-2.2,0-4,1.8-4,4
		c0,1.7,1.2,3.2,2.7,3.8v31.4c-2.1,0.6-3.6,2.5-3.6,4.7c0,2.7,2.2,4.9,4.9,4.9c2.7,0,4.9-2.2,4.9-4.9
		C1050.7,326.9,1048.5,324.7,1045.8,324.7z M1042.8,289.7c0-1.6,1.4-3,3-3c1.7,0,3,1.3,3,3c0,1.7-1.3,3-3,3
		C1044.2,292.7,1042.8,291.3,1042.8,289.7z"/>
	<path class="st0" d="M1118,370.8c2.7,0,4.9-2.2,4.9-4.9c0-2.7-2.2-4.9-4.9-4.9s-4.9,2.2-4.9,4.9c0,1.1,0.3,2,0.9,2.8l-67.6,66.9
		l-0.1,0.1v35.4l-34.4,34.1c-0.7-0.7-1.7-1.2-2.8-1.2c-2.2,0-4,1.8-4,4c0,2.2,1.8,4,4,4c2.2,0,4-1.8,4-4c0-0.7-0.2-1.4-0.6-2
		l34.6-34.3l0.1-0.1v-35.4l67.4-66.7C1115.6,370.3,1116.7,370.8,1118,370.8z M1012.1,508.1c0,1.6-1.4,3-3,3c-1.7,0-3-1.3-3-3
		c0-1.6,1.4-3,3-3c0.8,0,1.6,0.3,2.1,0.9l-0.5,0.5l0.7,0.7l0.3-0.3C1012,507.2,1012.1,507.6,1012.1,508.1z"/>
	<path class="st0" d="M1227.4,296.7c0-2.7-2.2-4.9-4.9-4.9c-2.7,0.1-4.9,2.2-4.9,4.9c0,2.4,1.7,4.3,3.9,4.8v58.2
		c-1.3,0.7-2.3,2-2.3,3.6c0,2.2,1.8,4,4,4c2.3,0,4-1.7,4-4c0-2.2-1.8-4-4-4c-0.2,0-0.5,0-0.7,0.1v-57.8
		C1225.2,301.6,1227.4,299.4,1227.4,296.7z M1226.2,363.3c0,1.7-1.3,3-3,3c-1.6,0-3-1.4-3-3s1.4-3,3-3
		C1224.9,360.3,1226.2,361.6,1226.2,363.3z"/>
	<path class="st0" d="M1302.1,326.1l66.1-65.4v-38.4l72.9-72.2c0.7,0.5,1.5,0.8,2.3,0.8c2.2,0,4-1.8,4-4c0-2.2-1.8-4-4-4s-4,1.8-4,4
		c0,1,0.4,1.9,0.9,2.6l-73.1,72.4v38.4l-65.9,65.2c-0.8-0.5-1.7-0.8-2.6-0.8c-2.7,0-4.9,2.2-4.9,4.9c0,2.7,2.2,4.9,4.9,4.9
		c2.7,0,4.9-2.2,4.9-4.9C1303.6,328.2,1303,327,1302.1,326.1z M1443.4,143.9c1.6,0,3,1.4,3,3c0,1.6-1.4,3-3,3c-1.7,0-3-1.3-3-3
		C1440.4,145.3,1441.8,143.9,1443.4,143.9z"/>
	<path class="st0" d="M1289.8,134.1c0,1.4,0.6,2.6,1.5,3.5l-102.9,101.9c-0.7-0.6-1.6-1.1-2.7-1.1c-2.2,0-4,1.8-4,4c0,2.2,1.8,4,4,4
		c1.1,0,2.2-0.5,3-1.2c0.7-0.7,1.1-1.7,1-2.8c0-0.8-0.3-1.6-0.7-2.2l103-102c0.7,0.5,1.6,0.7,2.6,0.7c2.7,0,4.9-2.2,4.9-4.9
		s-2.2-4.9-4.9-4.9C1292,129.3,1289.8,131.4,1289.8,134.1z M1188.8,242.5c0,0.8-0.2,1.5-0.7,2c-0.6,0.6-1.4,0.9-2.3,0.9
		c-1.7,0-3-1.3-3-3c0-1.6,1.4-3,3-3c0.7,0,1.4,0.3,1.9,0.8l-0.2,0.2l0.7,0.7l0.1-0.1C1188.6,241.5,1188.8,242,1188.8,242.5z"/>
	<path class="st0" d="M1331.9,49c2.7,0,4.9-2.2,4.9-4.9c0-2.7-2.2-4.9-4.9-4.9c-2.7,0-4.9,2.3-4.9,4.9
		C1327,46.8,1329.2,49,1331.9,49z"/>
	<path class="st0" d="M1544.8,45.5l-68.2,67.7c-0.7-0.7-1.7-1.1-2.7-1.1c-2.2,0-4,1.8-4,4s1.8,4,4,4c2.2,0,4-1.8,4-4
		c0-0.8-0.2-1.5-0.6-2.2l68.5-67.9c0.6,0.3,1.2,0.4,1.9,0.4c2.7,0,4.9-2.2,4.9-4.9c0-2.7-2.2-4.9-4.9-4.9c-2.7,0.1-4.9,2.3-4.9,4.9
		C1542.7,43.1,1543.5,44.6,1544.8,45.5z M1473.8,119.1c-1.6,0-3-1.4-3-3s1.4-3,3-3c0.8,0,1.5,0.3,2,0.8l-0.1,0.1l0.6,0.7
		c0.3,0.4,0.4,0.9,0.4,1.5C1476.8,117.8,1475.5,119.1,1473.8,119.1z"/>
	<path class="st0" d="M1729.9,37.5c-2.7,0.1-4.9,2.2-4.9,4.9c0,1.2,0.4,2.2,1.1,3.1l-32.4,32.1h-41.5l-69.4,68.9l0.7,0.7l69.2-68.7
		h41.5l32.7-32.4c0.8,0.7,1.9,1.1,3.1,1.1c2.7,0,4.9-2.2,4.9-4.9C1734.8,39.7,1732.6,37.5,1729.9,37.5z"/>
	<path class="st0" d="M1660.1,109.4c-2.7,0-4.9,2.2-4.9,4.9c0,1.2,0.4,2.2,1.1,3.1l-73.4,72.7h-70.5l-30.1,29.8
		c-0.7-0.7-1.7-1.1-2.7-1.1c-2.2,0-4,1.8-4,4c0,2.2,1.8,4,4,4c1.1,0,2.2-0.5,3-1.3c0.7-0.8,1.1-1.7,1-2.7c0-0.8-0.2-1.5-0.6-2.2
		l29.8-29.5h70.5l73.7-73c0.8,0.7,1.9,1.1,3.1,1.1c2.7,0,4.9-2.2,4.9-4.9C1665,111.6,1662.8,109.4,1660.1,109.4z M1481.8,224.9
		c-0.6,0.6-1.4,0.9-2.2,0.9c-1.7,0-3-1.3-3-3c0-1.6,1.4-3,3-3c1.7,0,3,1.3,3,3C1482.6,223.6,1482.4,224.3,1481.8,224.9z"/>
	<path class="st0" d="M1296.1,395c-2.8,0-4.9,2.2-4.9,4.9c0,1.2,0.5,2.3,1.2,3.2l-69.4,68.7h-70.3c0,0,0-0.1,0-0.1c0-2.2-1.8-4-4-4
		c-2.2,0-4,1.8-4,4s1.8,4,4,4c1.8,0,3.3-1.2,3.8-2.9h70.9l69.7-69c0.8,0.6,1.9,1,3,1c2.7,0,4.9-2.2,4.9-4.9
		C1301,397.2,1298.8,395,1296.1,395z M1148.7,474.7c-1.6,0-3-1.4-3-3s1.4-3,3-3c1.7,0,3,1.3,3,3c0,0,0,0.1,0,0.1h-1v1h0.8
		C1151,473.9,1149.9,474.7,1148.7,474.7z"/>
	<path class="st0" d="M1267.9,467.4c-2.7,0.1-4.9,2.3-4.9,4.9c0,1.3,0.5,2.5,1.3,3.3l-36.4,36.1H1154l-33.5,33.3
		c-0.7-0.5-1.5-0.9-2.5-0.9c-2.2,0-4,1.8-4,4c0,2.2,1.8,4,4,4s4-1.8,4-4c0-0.9-0.3-1.7-0.8-2.4l33.2-33h73.9l36.8-36.4
		c0.8,0.6,1.8,0.9,2.8,0.9c2.7,0,4.9-2.2,4.9-4.9S1270.6,467.4,1267.9,467.4z M1121,548.1c0,1.6-1.4,3-3,3s-3-1.4-3-3
		c0-1.6,1.4-3,3-3c0.7,0,1.3,0.2,1.8,0.6l-0.4,0.3l0.7,0.7l0.3-0.3C1120.8,546.9,1121,547.5,1121,548.1z"/>
	<path class="st0" d="M973.3,405.9c2.7,0,4.9-2.2,4.9-4.9c0-2.2-1.4-4-3.4-4.6v-66.6l68-67.3V191c1.9-0.3,3.5-2,3.5-3.9
		c0-2.2-1.8-4-4-4c-2.2,0-4,1.8-4,4c0,2,1.6,3.7,3.5,3.9v71l-67.9,67.2l-0.1,0.1v66.8c-0.2,0-0.3-0.1-0.5-0.1
		c-2.7,0-4.9,2.2-4.9,4.9S970.6,405.9,973.3,405.9z M1039.3,187.1c0-1.6,1.4-3,3-3c1.7,0,3,1.3,3,3c0,1.5-1.1,2.7-2.5,2.9v-0.5h-1
		v0.5C1040.4,189.8,1039.3,188.6,1039.3,187.1z"/>
	<path class="st0" d="M1115.7,48.9v68.8l-36.3,36v104.1c-1.9,0.3-3.5,2-3.5,3.9c0,2.2,1.8,4,4,4c2.2,0,4-1.8,4-4
		c0-2-1.6-3.7-3.5-3.9V154.1l36.3-36V49c2.6-0.1,4.7-2.2,4.7-4.9c0-2.7-2.2-4.9-4.9-4.9c-2.7,0.1-4.9,2.3-4.9,4.9
		C1111.6,46.5,1113.4,48.5,1115.7,48.9z M1082.9,261.7c0,1.6-1.4,3-3,3c-1.7,0-3-1.3-3-3c0-1.6,1.4-3,3-3S1082.9,260.1,1082.9,261.7
		z"/>
	<circle class="st0" cx="1116.5" cy="9.8" r="4.9"/>
	<path class="st0" d="M1044.1,46.4c2.7,0,4.9-2.2,4.9-4.9c0-2.7-2.2-4.9-4.9-4.9c-2.7,0.1-4.9,2.3-4.9,4.9
		C1039.2,44.2,1041.4,46.4,1044.1,46.4z"/>
	<path class="st0" d="M936.4,86.4c2.7,0,4.9-2.2,4.9-4.9c0-2.4-1.8-4.4-4.1-4.8V9.8h-1v66.8c-2.6,0.2-4.7,2.2-4.7,4.9
		C931.5,84.2,933.7,86.4,936.4,86.4z"/>
	<path class="st0" d="M898.5,13.3v99.3h0.1c-1.3,0.7-2.1,2-2.1,3.5c0,2.2,1.8,4,4,4c1.1,0,2.2-0.5,3-1.2c0.7-0.7,1.1-1.7,1-2.8
		c0-2.2-1.8-4-4-4c-0.3,0-0.7,0.1-1,0.1V13.5c0.1,0,0.2,0,0.3,0c2.7,0,4.9-2.2,4.9-4.9c0-2.7-2.2-4.9-4.9-4.9
		c-2.7,0-4.9,2.2-4.9,4.9C894.9,10.8,896.4,12.7,898.5,13.3z M903.5,116.1c0,0.8-0.2,1.5-0.7,2c-0.6,0.6-1.4,0.9-2.3,0.9
		c-1.6,0-3-1.4-3-3s1.4-3,3-3C902.2,113.1,903.5,114.4,903.5,116.1z"/>
	<path class="st0" d="M971.3,544.6v-35.2c2.5-0.3,4.4-2.3,4.4-4.8c0-2.7-2.2-4.9-4.9-4.9c-2.7,0-4.9,2.2-4.9,4.9
		c0,2.5,1.9,4.6,4.4,4.8v34.7l-63.2,62.6l0.7,0.7l63.3-62.7L971.3,544.6z"/>
	<path class="st0" d="M901,484.1l54.1-53.6c0.7,0.7,1.7,1.2,2.8,1.2c2.2,0,4-1.8,4-4c0-2.2-1.8-4-4-4c-2.2,0-4,1.8-4,4
		c0,0.8,0.2,1.4,0.6,2l-54.3,53.8l-0.1,0.1v93.2h0.5h0.5V484.1z M957.9,424.7c1.6,0,3,1.4,3,3c0,1.7-1.3,3-3,3s-3-1.3-3-3
		C954.9,426.1,956.3,424.7,957.9,424.7z"/>
	<path class="st0" d="M1009.6,438.7v-69.2c2.5-0.3,4.4-2.3,4.4-4.8c0-2.7-2.2-4.9-4.9-4.9c-2.7,0-4.9,2.2-4.9,4.9
		c0,2.5,1.9,4.6,4.4,4.8v68.7L939.3,507c-0.6-0.4-1.4-0.7-2.1-0.7c-2.2,0-4,1.8-4,4c0,2.2,1.8,4,4,4c2.2,0,4-1.8,4-4
		c0-1-0.4-2-1.1-2.7l69.3-68.7L1009.6,438.7z M937.2,513.3c-1.7,0-3-1.3-3-3c0-1.6,1.4-3,3-3c1.6,0,3,1.4,3,3
		S938.8,513.3,937.2,513.3z"/>
	<path class="st0" d="M974.5,256.7c0.7,0.5,1.5,0.8,2.4,0.8c2.2,0,4-1.8,4-4s-1.8-4-4-4c-2.2,0-4,1.8-4,4c0,1,0.3,1.8,0.9,2.5
		l-38.6,38.4v101.8c-2.2,0.5-3.9,2.4-3.9,4.8c0,2.7,2.2,4.9,4.9,4.9s4.9-2.2,4.9-4.9s-2.2-4.9-4.9-4.9V294.8L974.5,256.7z
		 M976.9,250.5c1.6,0,3,1.4,3,3s-1.4,3-3,3c-1.7,0-3-1.3-3-3C973.9,251.9,975.3,250.5,976.9,250.5z"/>
	<path class="st0" d="M1077.5,111.2l-72.5,71.8v68.4c-2.1,0.6-3.7,2.4-3.7,4.7c0,2.7,2.2,4.9,4.9,4.9s4.9-2.2,4.9-4.9
		c0-2.7-2.2-4.9-4.9-4.9c-0.1,0-0.1,0-0.2,0v-67.8l72.3-71.6L1077.5,111.2z"/>
	<path class="st0" d="M970.3,216.2c-2.5,0.3-4.4,2.3-4.4,4.8c0,2.7,2.2,4.9,4.9,4.9c2.7,0,4.9-2.2,4.9-4.9c0-2.5-1.9-4.6-4.4-4.8
		v-62.7l37.4-37.1l-0.7-0.7L970.3,153V216.2z"/>
	<path class="st0" d="M938.3,221.5v-64.2c2.5-0.3,4.4-2.3,4.4-4.8c0-2.7-2.2-4.9-4.9-4.9c-2.8,0-4.9,2.2-4.9,4.9
		c0,2.5,1.9,4.6,4.4,4.8v63.7L900,258v138.5c-1.9,0.3-3.5,2-3.5,3.9c0,2.2,1.8,4,4,4c2.2,0,4-1.8,4-4c0-2.1-1.5-3.7-3.5-4v-138
		L938.3,221.5z M903.5,400.4c0,1.7-1.3,3-3,3c-1.6,0-3-1.4-3-3c0-1.5,1.1-2.7,2.5-2.9v0h1v-0.1C902.4,397.7,903.5,398.9,903.5,400.4
		z"/>
	<path class="st0" d="M830,508.5c0.9-0.1,1.8-0.5,2.5-1.2c0.7-0.8,1.1-1.7,1-2.7c0-2.2-1.8-4-4-4c-2.2,0-4,1.8-4,4
		c0,2,1.6,3.7,3.5,3.9v73.4l25.8,25.5l0.7-0.7L830,581.5V508.5z M826.5,504.6c0-1.6,1.4-3,3-3c1.7,0,3,1.3,3,3c0,0.7-0.2,1.5-0.8,2
		c-0.5,0.5-1.1,0.8-1.7,0.9v-0.1h-1v0.1C827.6,507.3,826.5,506.1,826.5,504.6z"/>
	<path class="st0" d="M865.4,328.2h1V223.4l32.8-32.5c0.8,0.7,1.9,1.1,3.1,1.1c2.7,0,4.9-2.2,4.9-4.9s-2.2-4.9-4.9-4.9
		c-2.7,0-4.9,2.2-4.9,4.9c0,1.2,0.4,2.2,1.1,3.1L865.4,223V328.2z"/>
	<path class="st0" d="M790.4,116.6V48.2h-1V117l36.7,36.4v65c-2.5,0.3-4.4,2.3-4.4,4.8c0,2.7,2.2,4.9,4.9,4.9c2.7,0,4.9-2.2,4.9-4.9
		c0-2.5-1.9-4.6-4.4-4.8V153L790.4,116.6z"/>
	<path class="st0" d="M1046.3,363.5c-0.7-1-1.9-1.6-3.2-1.6c-2.2,0-4,1.8-4,4c0,2.2,1.8,4,4,4c2.2,0,4-1.8,4-4c0-0.5-0.1-1-0.3-1.5
		l37.1-36.8V298c2.5-0.3,4.4-2.3,4.4-4.8c0-2.7-2.2-4.9-4.9-4.9c-2.7,0.1-4.9,2.2-4.9,4.9c0,2.5,1.9,4.6,4.4,4.8v29.1L1046.3,363.5z
		 M1043.1,368.9c-1.7,0-3-1.3-3-3c0-1.6,1.4-3,3-3c1,0,1.9,0.5,2.5,1.3l-0.1,0.1l0.4,0.4c0.1,0.4,0.2,0.7,0.2,1.1
		C1046.1,367.5,1044.7,368.9,1043.1,368.9z"/>
	<path class="st0" d="M1154.7,223.2c0.9-0.1,1.8-0.5,2.5-1.2c0.7-0.8,1.1-1.7,1-2.7c0-2.2-1.8-4-4-4c-2.2,0-4,1.8-4,4
		c0,2,1.6,3.7,3.5,3.9v70.1l-32.6,32.4c-0.8-0.7-1.9-1.1-3.1-1.1c-2.7,0-4.9,2.2-4.9,4.9c0,2.7,2.2,4.9,4.9,4.9s4.9-2.2,4.9-4.9
		c0-1.2-0.4-2.2-1.1-3.1l32.9-32.7V223.2z M1151.2,219.3c0-1.6,1.4-3,3-3c1.7,0,3,1.3,3,3c0,0.7-0.2,1.5-0.8,2
		c-0.5,0.5-1.1,0.8-1.7,0.9V221h-1v1.2C1152.3,222,1151.2,220.8,1151.2,219.3z"/>
	<path class="st0" d="M1187.5,147.2l-71.5,70.9v71.1c-1.8,0.4-3.1,2-3.1,3.9c0,2.2,1.8,4,4,4s4-1.8,4-4c0-2.1-1.8-3.9-3.9-4v-70.6
		l71.3-70.7L1187.5,147.2z M1119.9,293.2c0,1.7-1.3,3-3,3s-3-1.3-3-3c0-1.3,0.9-2.4,2.1-2.8v0.6h1v-0.8
		C1118.6,290.3,1119.9,291.6,1119.9,293.2z"/>
	<path class="st0" d="M1261.6,363.8v-62.3c2.5-0.3,4.4-2.3,4.4-4.8c0-2.7-2.2-4.9-4.9-4.9c-2.7,0.1-4.9,2.2-4.9,4.9
		c0,2.5,1.9,4.6,4.4,4.8v61.8l-71.7,71c-0.7-0.6-1.6-1-2.7-1c-2.2,0-4,1.8-4,4s1.8,4,4,4c1.1,0,2.2-0.5,3-1.3c0.7-0.8,1.1-1.7,1-2.7
		c0-0.8-0.2-1.6-0.7-2.2l71.9-71.2L1261.6,363.8z M1189.2,437.4c0,0.7-0.2,1.5-0.8,2c-0.6,0.6-1.4,0.9-2.2,0.9c-1.6,0-3-1.4-3-3
		c0-1.6,1.4-3,3-3c0.8,0,1.4,0.3,2,0.7l-0.6,0.6l0.7,0.7l0.5-0.5C1189,436.4,1189.2,436.9,1189.2,437.4z"/>
	<path class="st0" d="M1407.6,139.2c-0.6-0.4-1.4-0.7-2.1-0.7c-2.2,0-4,1.8-4,4c0,2.2,1.8,4,4,4c2.2,0,4-1.8,4-4c0-1-0.4-2-1.1-2.7
		L1509,40c0.9,1,2.2,1.6,3.6,1.6c2.7,0,4.9-2.2,4.9-4.9c0-2.7-2.2-4.9-4.9-4.9c-2.7,0-4.9,2.2-4.9,4.9c0,0.9,0.3,1.8,0.7,2.5
		L1407.6,139.2z M1408.5,142.5c0,1.6-1.4,3-3,3c-1.7,0-3-1.3-3-3c0-1.6,1.4-3,3-3c0.5,0,1,0.1,1.4,0.4l-0.5,0.5l0.7,0.7l0.6-0.5
		C1408.2,141,1408.5,141.7,1408.5,142.5z"/>
	<path class="st0" d="M1224.9,78.2l33.2-32.8c0.8,0.7,1.9,1.1,3,1.1c2.7,0,4.9-2.2,4.9-4.9c0-2.7-2.2-4.9-4.9-4.9
		c-2.7,0.1-4.9,2.3-4.9,4.9c0,1.2,0.4,2.3,1.2,3.1l-33.2,32.8L1224.9,78.2z"/>
	<path class="st0" d="M534.1,336.5l72.8,72.1c-0.7,0.7-1.1,1.7-1.1,2.8c0,2.2,1.8,4,4,4c2.2,0,4-1.8,4-4c0-2.2-1.8-4-4-4
		c-0.8,0-1.5,0.2-2.1,0.6l-72.6-71.9v-70.2h-0.5h-0.5V336.5z M612.8,411.4c0,1.7-1.3,3-3,3c-1.6,0-3-1.4-3-3c0-1.6,1.4-3,3-3
		C611.5,408.4,612.8,409.7,612.8,411.4z"/>
	<polygon class="st0" points="1511.3,154.3 1587.4,78.9 1587.5,78.7 1587.5,3.7 1586.5,3.7 1586.5,78.3 1510.5,153.5 	"/>
	<path class="st0" d="M251.4,117.9l31.7,31.5c-0.4,0.7-0.6,1.4-0.6,2.3c0,2.7,2.2,4.9,4.9,4.9c2.7,0,4.9-2.2,4.9-4.9
		c0-2.7-2.2-4.9-4.9-4.9c-1.5,0.1-2.8,0.7-3.7,1.8l-31.9-31.7h-36.2l-35.3-35.1c0.6-0.7,0.9-1.6,0.9-2.6c0-2.2-1.8-4-4-4
		c-2.2,0-4,1.8-4,4c0,2.2,1.8,4,4,4c0.9,0,1.7-0.3,2.3-0.8l35.6,35.5H251.4z M174.2,79.2c0-1.6,1.4-3,3-3c1.7,0,3,1.3,3,3
		s-1.3,3-3,3C175.6,82.2,174.2,80.8,174.2,79.2z"/>
</g>
</svg>
