<?xml version="1.0" encoding="utf-8"?>
<!-- Generator: Adobe Illustrator 22.0.1, SVG Export Plug-In . SVG Version: 6.00 Build 0)  -->
<svg version="1.1" id="Layer_1" xmlns="http://www.w3.org/2000/svg" xmlns:xlink="http://www.w3.org/1999/xlink" x="0px" y="0px"
	 viewBox="0 0 1280 480" style="enable-background:new 0 0 1280 480;" xml:space="preserve">
<style type="text/css">
	.st0{fill:rgba(255,255,255,.285);}
	.st1{font-family:'Roboto-Regular';}
	.st2{font-size:9px;}
	.st3{font-family:'PingFangSC-Regular-GBpc-EUC-H';}
</style>
<g>
	<path class="st0" d="M637,456.1c-2.1,0-3.8,1.7-3.8,3.7c0,2.1,1.7,3.7,3.8,3.7c2.1,0,3.8-1.7,3.8-3.7
		C640.8,457.8,639.1,456.1,637,456.1z"/>
	<path class="st0" d="M499.7,50.2v80.4l54.2,53.7v51.3c-1.3,0.4-2.3,1.5-2.3,3c0,1.7,1.4,3.1,3.1,3.1c1.7,0,3.1-1.4,3.1-3.1
		c0-1.7-1.4-3.1-3.1-3.1c0,0,0,0,0,0V184l-54.2-53.7V50.2c1.9-0.2,3.4-1.8,3.4-3.7c0-2.1-1.7-3.7-3.8-3.7c-2.1,0-3.8,1.7-3.8,3.7
		C496.3,48.4,497.8,50,499.7,50.2z M557,238.6c0,1.3-1,2.3-2.3,2.3c-1.3,0-2.3-1-2.3-2.3c0-1.3,1-2.3,2.3-2.3
		C556,236.3,557,237.3,557,238.6z"/>
	<path class="st0" d="M442.7,51.2v50.7l28.6,28.3c-0.3,0.4-0.4,1-0.4,1.5c0,1.7,1.4,3.1,3.1,3.1c1.7,0,3.1-1.4,3.1-3.1
		c0-1.7-1.4-3.1-3.1-3.1c-0.9,0-1.7,0.4-2.2,0.9l-28.3-28V51.2c1.9-0.2,3.4-1.8,3.4-3.7c0-2.1-1.7-3.7-3.8-3.7
		c-2.1,0-3.8,1.7-3.8,3.7C439.3,49.5,440.8,51,442.7,51.2z M473.9,129.4c1.3,0,2.3,1,2.3,2.3c0,1.3-1,2.3-2.3,2.3
		c-1.3,0-2.3-1-2.3-2.3c0-0.6,0.2-1.2,0.7-1.6l0,0l0,0C472.7,129.7,473.3,129.4,473.9,129.4z"/>
	<path class="st0" d="M135,48.3c0.6,0,1.2-0.2,1.8-0.5l77.8,77.1c-0.5,0.5-0.8,1.3-0.8,2.1c0,1.7,1.4,3.1,3.1,3.1
		c1.7,0,3.1-1.4,3.1-3.1c0-1.7-1.4-3.1-3.1-3.1c-0.6,0-1.2,0.2-1.7,0.5l-77.7-77c0.8-0.7,1.4-1.7,1.4-2.9c0-2.1-1.7-3.7-3.8-3.7
		c-2.1,0-3.8,1.7-3.8,3.7C131.2,46.6,132.9,48.3,135,48.3z M219.1,127c0,1.3-1,2.3-2.3,2.3c-1.3,0-2.3-1-2.3-2.3
		c0-1.3,1-2.3,2.3-2.3C218.1,124.7,219.1,125.7,219.1,127z"/>
	<ellipse class="st0" cx="82.5" cy="44.5" rx="3.8" ry="3.7"/>
	<path class="st0" d="M252.8,270.1c2.1,0,3.8-1.7,3.8-3.7s-1.7-3.7-3.8-3.7c-1.1,0-2.1,0.5-2.8,1.3l-27-26.7
		c0.5-0.5,0.8-1.3,0.8-2.1c0-1.7-1.4-3.1-3.1-3.1c-1.7,0-3.1,1.4-3.1,3.1c0,1.7,1.4,3.1,3.1,3.1c0.6,0,1.2-0.2,1.7-0.5l27.1,26.9
		c-0.3,0.5-0.5,1.1-0.5,1.8C249,268.5,250.7,270.1,252.8,270.1z M218.4,235.1c0-1.3,1-2.3,2.3-2.3c1.3,0,2.3,1,2.3,2.3
		c0,1.3-1,2.3-2.3,2.3C219.4,237.4,218.4,236.4,218.4,235.1z"/>
	<path class="st0" d="M277.4,346.8c-0.9,0-1.7,0.3-2.4,0.8l-82.5-81.8v-55.3l-53.6-53.1c0.5-0.5,0.8-1.2,0.8-2
		c0-1.7-1.4-3.1-3.1-3.1c-1.7,0-3.1,1.4-3.1,3.1c0,1.7,1.4,3.1,3.1,3.1c0.7,0,1.3-0.2,1.8-0.6l53.4,52.9v55.3l82.7,82
		c-0.5,0.6-0.9,1.4-0.9,2.3c0,2.1,1.7,3.7,3.8,3.7c2.1,0,3.8-1.7,3.8-3.7C281.2,348.5,279.5,346.8,277.4,346.8z M134.3,155.4
		c0-1.3,1-2.3,2.3-2.3c1.3,0,2.3,1,2.3,2.3c0,0.6-0.2,1.1-0.5,1.5l0,0l-0.5,0.5c-0.4,0.2-0.8,0.4-1.3,0.4
		C135.3,157.7,134.3,156.7,134.3,155.4z"/>
	<path class="st0" d="M189.2,48.3c0.8,0,1.6-0.3,2.2-0.7l52.2,51.8v55.9l89.2,88.4c-0.4,0.5-0.6,1.1-0.6,1.8c0,1.7,1.4,3.1,3.1,3.1
		s3.1-1.4,3.1-3.1c0-1.7-1.4-3.1-3.1-3.1c-0.7,0-1.4,0.3-2,0.7l-89-88.2V99l-52.4-52c0.6-0.7,1-1.6,1-2.5c0-2.1-1.7-3.7-3.8-3.7
		c-2.1,0-3.8,1.7-3.8,3.7C185.4,46.6,187.1,48.3,189.2,48.3z M337.6,245.5c0,1.3-1,2.3-2.3,2.3c-1.3,0-2.3-1-2.3-2.3
		c0-1.3,1-2.3,2.3-2.3C336.5,243.2,337.6,244.2,337.6,245.5z"/>
	<ellipse class="st0" cx="281.2" cy="99.8" rx="3.8" ry="3.7"/>
	<path class="st0" d="M297.7,118.4c0.7,0,1.4-0.2,2-0.6l74.3,73.6c-0.5,0.5-0.8,1.3-0.8,2c0,1.7,1.4,3.1,3.1,3.1
		c1.7,0,3.1-1.4,3.1-3.1c0-1.7-1.4-3.1-3.1-3.1c-0.6,0-1.2,0.2-1.7,0.5l0,0l-74.2-73.6c0.7-0.7,1.2-1.6,1.2-2.7
		c0-2.1-1.7-3.7-3.8-3.7c-2.1,0-3.8,1.7-3.8,3.7C293.9,116.7,295.6,118.4,297.7,118.4z M376.3,191.2c1.3,0,2.3,1,2.3,2.3
		c0,1.3-1,2.3-2.3,2.3c-1.3,0-2.3-1-2.3-2.3C374,192.2,375,191.2,376.3,191.2z"/>
	<path class="st0" d="M324.7,47.5c0.7,0,1.3-0.2,1.9-0.5L352,72.2c-0.8,0.6-1.3,1.5-1.3,2.5c0,1.7,1.4,3.1,3.1,3.1
		c1.7,0,3.1-1.4,3.1-3.1c0-1.7-1.4-3.1-3.1-3.1c-0.4,0-0.7,0.1-1,0.2l-25.5-25.2c0.8-0.7,1.2-1.7,1.2-2.8c0-2.1-1.7-3.7-3.8-3.7
		c-2.1,0-3.8,1.7-3.8,3.7C320.9,45.9,322.6,47.5,324.7,47.5z M356.1,74.7c0,1.3-1,2.3-2.3,2.3c-1.3,0-2.3-1-2.3-2.3
		c0-1.3,1-2.3,2.3-2.3C355,72.4,356.1,73.4,356.1,74.7z"/>
	<path class="st0" d="M337.2,219.1c2.1,0,3.8-1.7,3.8-3.7c0-2.1-1.7-3.7-3.8-3.7c-0.9,0-1.6,0.3-2.3,0.8L303.2,181v-32.9
		c1.5-0.2,2.7-1.5,2.7-3c0-1.7-1.4-3.1-3.1-3.1c-1.7,0-3.1,1.4-3.1,3.1c0,1.6,1.2,2.8,2.7,3v33.2l31.9,31.6
		c-0.6,0.7-0.9,1.5-0.9,2.4C333.4,217.4,335.1,219.1,337.2,219.1z M300.5,145.1c0-1.3,1-2.3,2.3-2.3c1.3,0,2.3,1,2.3,2.3
		c0,1.3-1,2.3-2.3,2.3C301.5,147.4,300.5,146.3,300.5,145.1z"/>
	<path class="st0" d="M359.5,213.3c0-2.1-1.7-3.7-3.8-3.7c-2.1,0-3.8,1.7-3.8,3.7c0,2,1.7,3.7,3.7,3.7h-0.3v54.3l56,55.5
		c-0.5,0.6-0.9,1.3-0.9,2.1c0,1.7,1.4,3.1,3.1,3.1c1.7,0,3.1-1.4,3.1-3.1c0-1.7-1.4-3.1-3.1-3.1c-0.6,0-1.2,0.2-1.6,0.5L356.1,271
		V217h-0.3C357.8,217,359.5,215.3,359.5,213.3z M415.9,328.9c0,1.3-1,2.3-2.3,2.3c-1.3,0-2.3-1-2.3-2.3c0-1.3,1-2.3,2.3-2.3
		C414.8,326.6,415.9,327.7,415.9,328.9z"/>
	<path class="st0" d="M386.9,213.3c0-2.1-1.7-3.7-3.8-3.7c-2.1,0-3.8,1.7-3.8,3.7c0,2.1,1.7,3.7,3.8,3.7c0.1,0,0.2,0,0.3,0v43.3
		l32,31.7c-0.3,0.5-0.5,1.1-0.5,1.7c0,1.7,1.4,3.1,3.1,3.1c1.7,0,3.1-1.4,3.1-3.1c0-1.7-1.4-3.1-3.1-3.1c-0.8,0-1.5,0.3-2,0.8
		L384.2,260v-43.2C385.7,216.4,386.9,215,386.9,213.3z M418,291.5c1.3,0,2.3,1,2.3,2.3c0,1.3-1,2.3-2.3,2.3c-1.3,0-2.3-1-2.3-2.3
		c0-0.5,0.2-1,0.4-1.3l0.4-0.4l0,0C416.9,291.7,417.5,291.5,418,291.5z"/>
	<path class="st0" d="M377.8,128.6v25.1l18.9,18.7c-0.4,0.5-0.7,1.2-0.7,1.9c0,1.7,1.4,3.1,3.1,3.1c1.7,0,3.1-1.4,3.1-3.1
		c0-1.7-1.4-3.1-3.1-3.1c-0.7,0-1.3,0.2-1.8,0.6l-18.6-18.5v-24.8c1.8-0.3,3.2-1.8,3.2-3.7c0-2.1-1.7-3.7-3.8-3.7
		c-2.1,0-3.8,1.7-3.8,3.7C374.3,126.9,375.9,128.5,377.8,128.6z M401.4,174.4c0,1.3-1,2.3-2.3,2.3c-1.3,0-2.3-1-2.3-2.3
		c0-1.3,1-2.3,2.3-2.3C400.4,172,401.4,173.1,401.4,174.4z"/>
	<path class="st0" d="M344.7,317.6c0,2.1,1.7,3.7,3.8,3.7c2.1,0,3.8-1.7,3.8-3.7c0-2.1-1.7-3.7-3.8-3.7c-0.9,0-1.8,0.4-2.4,0.9
		l-103-102.1v-29.5l-56.4-55.9c0.4-0.5,0.6-1.1,0.6-1.8c0-1.7-1.4-3.1-3.1-3.1c-1.7,0-3.1,1.4-3.1,3.1c0,1.7,1.4,3.1,3.1,3.1
		c0.8,0,1.4-0.3,2-0.7l56.2,55.7V213l103.2,102.3C345,316,344.7,316.7,344.7,317.6z M184.2,127.8c-1.3,0-2.3-1-2.3-2.3
		c0-1.3,1-2.3,2.3-2.3c1.3,0,2.3,1,2.3,2.3C186.5,126.8,185.4,127.8,184.2,127.8z"/>
	<path class="st0" d="M430.2,338.1c-2.1,0-3.8,1.7-3.8,3.7c0,2.1,1.7,3.7,3.8,3.7c0.9,0,1.8-0.4,2.5-0.9l36.6,36.3
		c-0.4,0.5-0.7,1.2-0.7,1.9c0,1.7,1.4,3.1,3.1,3.1s3.1-1.4,3.1-3.1c0-1.7-1.4-3.1-3.1-3.1c-0.7,0-1.4,0.2-1.9,0.7l-36.6-36.3
		c0.5-0.6,0.8-1.4,0.8-2.3C434,339.8,432.3,338.1,430.2,338.1z M471.7,380.5c1.3,0,2.3,1,2.3,2.3c0,1.3-1,2.3-2.3,2.3
		s-2.3-1-2.3-2.3C469.4,381.5,470.4,380.5,471.7,380.5z"/>
	<path class="st0" d="M523.4,414.4c-0.9,0-1.7,0.3-2.4,0.8l-24.7-24.5v-27.2l-54.8-54.4l-0.4,0.4c0.3-0.5,0.5-1.1,0.5-1.7
		c0-1.7-1.4-3.1-3.1-3.1c-1.7,0-3.1,1.4-3.1,3.1c0,1.7,1.4,3.1,3.1,3.1c1,0,1.9-0.5,2.5-1.2l54.6,54.1v27.2l24.9,24.7
		c-0.5,0.6-0.9,1.4-0.9,2.3c0,2.1,1.7,3.7,3.8,3.7c2.1,0,3.8-1.7,3.8-3.7C527.2,416.1,525.5,414.4,523.4,414.4z M438.5,310.2
		c-1.3,0-2.3-1-2.3-2.3c0-1.3,1-2.3,2.3-2.3c1.3,0,2.3,1,2.3,2.3C440.8,309.2,439.8,310.2,438.5,310.2z"/>
	<path class="st0" d="M523.4,453.8c-0.8,0-1.5,0.3-2.1,0.7l-24.6-24.4h-55.3l-52.3-51.8c0.4-0.5,0.6-1.1,0.6-1.8
		c0-1.7-1.4-3.1-3.1-3.1c-1.7,0-3.1,1.4-3.1,3.1c0,1.7,1.4,3.1,3.1,3.1c0.8,0,1.5-0.3,2-0.7l52.4,51.9l0.1,0.1h55.3l24.3,24.1
		c-0.6,0.7-1,1.6-1,2.6c0,2.1,1.7,3.7,3.8,3.7c2.1,0,3.8-1.7,3.8-3.7C527.2,455.5,525.5,453.8,523.4,453.8z M386.6,378.8
		c-1.3,0-2.3-1-2.3-2.3c0-1.3,1-2.3,2.3-2.3c1.3,0,2.3,1,2.3,2.3c0,0.5-0.1,0.9-0.4,1.3l-0.5,0.5l0,0
		C387.6,378.6,387.1,378.8,386.6,378.8z"/>
	<path class="st0" d="M443.1,131.9c1.1,0,2.1-0.5,2.8-1.3l26.2,25.9v54.8l27.3,27c-0.3,0.5-0.4,1-0.4,1.6c0,1.7,1.4,3.1,3.1,3.1
		c1.7,0,3.1-1.4,3.1-3.1c0-1.7-1.4-3.1-3.1-3.1c-0.9,0-1.6,0.3-2.2,0.9l-27-26.7v-54.8L446.3,130c0.3-0.5,0.5-1.2,0.5-1.8
		c0-2.1-1.7-3.7-3.8-3.7c-2.1,0-3.8,1.7-3.8,3.7C439.3,130.3,441,131.9,443.1,131.9z M502,237.6c1.3,0,2.3,1,2.3,2.3
		c0,1.3-1,2.3-2.3,2.3c-1.3,0-2.3-1-2.3-2.3C499.6,238.7,500.7,237.6,502,237.6z"/>
	<path class="st0" d="M638.4,126.1c-2.1,0-3.8,1.7-3.8,3.7c0,2.1,1.7,3.7,3.8,3.7c2.1,0,3.8-1.7,3.8-3.7c0-1.1-0.5-2-1.2-2.7
		l51.6-51.1l-0.5-0.5l-51.7,51.2C639.7,126.3,639.1,126.1,638.4,126.1z"/>
	<path class="st0" d="M804.2,297.6c2.1,0,3.8-1.7,3.8-3.7c0-2.1-1.7-3.7-3.8-3.7c-2.1,0-3.8,1.7-3.8,3.7c0,0.8,0.3,1.5,0.7,2.2
		l-51.9,51.5l-0.1,0.1v27.2l-27.2,27c-0.6-0.6-1.3-0.9-2.2-0.9c-1.7,0-3.1,1.4-3.1,3.1c0,1.7,1.4,3.1,3.1,3.1c1.7,0,3.1-1.4,3.1-3.1
		c0-0.6-0.2-1.1-0.4-1.6l27.5-27.3V348l51.8-51.3C802.3,297.3,803.2,297.6,804.2,297.6z M719.7,406.3c-1.3,0-2.3-1-2.3-2.3
		c0-1.3,1-2.3,2.3-2.3c1.3,0,2.3,1,2.3,2.3C722,405.3,721,406.3,719.7,406.3z"/>
	<path class="st0" d="M884.6,244.5c2.1,0,3.8-1.7,3.8-3.7c0-2.1-1.7-3.7-3.8-3.7c-2.1,0-3.8,1.7-3.8,3.7c0,1.8,1.3,3.3,3,3.7v44.5
		c-1.4,0.3-2.5,1.5-2.5,3c0,1.7,1.4,3.1,3.1,3.1c1.7,0,3.1-1.4,3.1-3.1c0-1.6-1.3-2.9-2.9-3.1L884.6,244.5
		C884.6,244.5,884.6,244.5,884.6,244.5z M886.7,291.9c0,1.3-1,2.3-2.3,2.3c-1.3,0-2.3-1-2.3-2.3c0-1.3,1-2.3,2.3-2.3
		C885.6,289.6,886.7,290.7,886.7,291.9z"/>
	<path class="st0" d="M945.8,263.4l50.7-50.2l0.1-0.1v-29.5l56-55.5c0.5,0.4,1.1,0.6,1.8,0.6c1.7,0,3.1-1.4,3.1-3.1
		c0-1.7-1.4-3.1-3.1-3.1c-1.7,0-3.1,1.4-3.1,3.1c0,0.7,0.3,1.4,0.7,1.9l-56.1,55.6l-0.1,0.1v29.5l-50.6,50.2
		c-0.6-0.4-1.3-0.6-2.1-0.6c-2.1,0-3.8,1.7-3.8,3.7c0,2.1,1.7,3.7,3.8,3.7c2.1,0,3.8-1.7,3.8-3.7C946.9,265,946.5,264,945.8,263.4z
		 M1054.4,123.3c1.3,0,2.3,1,2.3,2.3c0,1.3-1,2.3-2.3,2.3c-1.3,0-2.3-1-2.3-2.3C1052.1,124.3,1053.1,123.3,1054.4,123.3z"/>
	<path class="st0" d="M936.3,115.7c0,1.1,0.5,2,1.2,2.7L858,197.2c-0.6-0.7-1.4-1.2-2.4-1.2c-1.7,0-3.1,1.4-3.1,3.1
		c0,1.7,1.4,3.1,3.1,3.1c1.7,0,3.1-1.4,3.1-3.1c0-0.4-0.1-0.9-0.3-1.2l79.6-79c0.6,0.4,1.2,0.6,2,0.6c2.1,0,3.8-1.7,3.8-3.7
		c0-2.1-1.7-3.7-3.8-3.7C938,112,936.3,113.7,936.3,115.7z M855.6,201.4c-1.3,0-2.3-1-2.3-2.3c0-1.3,1-2.3,2.3-2.3
		c1.3,0,2.3,1,2.3,2.3C857.9,200.3,856.9,201.4,855.6,201.4z"/>
	<path class="st0" d="M968.7,50.3c2.1,0,3.8-1.7,3.8-3.7c0-2.1-1.7-3.7-3.8-3.7c-2.1,0-3.8,1.7-3.8,3.7
		C964.9,48.6,966.6,50.3,968.7,50.3z"/>
	<path class="st0" d="M1132.4,47.6l-52.5,52.1c-0.6-0.5-1.3-0.8-2.1-0.8c-1.7,0-3.1,1.4-3.1,3.1c0,1.7,1.4,3.1,3.1,3.1
		c1.7,0,3.1-1.4,3.1-3.1c0-0.6-0.2-1.2-0.5-1.7L1133,48c0.5,0.2,1,0.3,1.5,0.3c2.1,0,3.8-1.7,3.8-3.7c0-2.1-1.7-3.7-3.8-3.7
		c-2.1,0-3.8,1.7-3.8,3.7C1130.8,45.8,1131.4,46.9,1132.4,47.6z M1077.7,104.2c-1.3,0-2.3-1-2.3-2.3c0-1.3,1-2.3,2.3-2.3
		c0.6,0,1.1,0.2,1.5,0.6l0,0l0.4,0.4c0.3,0.4,0.4,0.8,0.4,1.3C1080.1,103.2,1079,104.2,1077.7,104.2z"/>
	<path class="st0" d="M1274.7,41.5c-2.1,0-3.8,1.7-3.8,3.7c0,0.9,0.3,1.7,0.9,2.3l-24.9,24.7h-31.9l-53.1,52.7
		c-0.5-0.4-1.2-0.7-1.9-0.7c-1.7,0-3.1,1.4-3.1,3.1c0,1.7,1.4,3.1,3.1,3.1c1.7,0,3.1-1.4,3.1-3.1c0-0.7-0.2-1.3-0.6-1.8l52.9-52.5
		h31.9l25.2-25c0.6,0.5,1.5,0.9,2.4,0.9c2.1,0,3.8-1.7,3.8-3.7C1278.5,43.2,1276.8,41.5,1274.7,41.5z M1159.8,129.7
		c-1.3,0-2.3-1-2.3-2.3c0-1.3,1-2.3,2.3-2.3c1.3,0,2.3,1,2.3,2.3C1162.2,128.6,1161.1,129.7,1159.8,129.7z"/>
	<path class="st0" d="M1221,96.7c-2.1,0-3.8,1.7-3.8,3.7c0,0.9,0.3,1.7,0.8,2.3l-56.5,56h-54.2l-23.1,22.9c-0.6-0.5-1.3-0.8-2.1-0.8
		c-1.7,0-3.1,1.4-3.1,3.1c0,1.7,1.4,3.1,3.1,3.1c1.7,0,3.1-1.4,3.1-3.1c0-0.6-0.2-1.2-0.5-1.7l22.9-22.7h54.2l56.7-56.2
		c0.7,0.5,1.5,0.9,2.4,0.9c2.1,0,3.8-1.7,3.8-3.7C1224.8,98.4,1223.1,96.7,1221,96.7z M1082.3,186.2c-1.3,0-2.3-1-2.3-2.3
		c0-1.3,1-2.3,2.3-2.3c1.3,0,2.3,1,2.3,2.3C1084.6,185.2,1083.5,186.2,1082.3,186.2z"/>
	<path class="st0" d="M941.1,316.3c-2.1,0-3.8,1.7-3.8,3.7c0,0.9,0.4,1.8,0.9,2.5L885,375.4h-55.6v0.8h55.9l53.6-53.1
		c0.6,0.5,1.4,0.8,2.3,0.8c2.1,0,3.8-1.7,3.8-3.7C944.9,318,943.2,316.3,941.1,316.3z"/>
	<path class="st0" d="M919.5,372c-2.1,0-3.8,1.7-3.8,3.7c0,1,0.4,1.9,1,2.5l-28,27.7h-56.8l-26.6,26.3c-0.5-0.4-1.2-0.7-1.9-0.7
		c-1.7,0-3.1,1.4-3.1,3.1c0,1.7,1.4,3.1,3.1,3.1c1.7,0,3.1-1.4,3.1-3.1c0-0.7-0.2-1.3-0.6-1.8l26.3-26.1h56.8l28.2-28
		c0.6,0.4,1.4,0.7,2.2,0.7c2.1,0,3.8-1.7,3.8-3.7C923.2,373.7,921.6,372,919.5,372z M803.4,437c-1.3,0-2.3-1-2.3-2.3
		c0-1.3,1-2.3,2.3-2.3c1.3,0,2.3,1,2.3,2.3C805.8,436,804.7,437,803.4,437z"/>
	<path class="st0" d="M802.5,50.2v52.8l-27.8,27.6l-0.1,0.1v80c-1.5,0.2-2.7,1.5-2.7,3c0,1.7,1.4,3.1,3.1,3.1s3.1-1.4,3.1-3.1
		c0-1.6-1.2-2.8-2.7-3v-79.7l27.8-27.6l0.1-0.1V50.3c2-0.1,3.6-1.7,3.6-3.7c0-2.1-1.7-3.7-3.8-3.7c-2.1,0-3.8,1.7-3.8,3.7
		C799.3,48.4,800.7,49.9,802.5,50.2z M777.2,213.8c0,1.3-1,2.3-2.3,2.3c-1.3,0-2.3-1-2.3-2.3c0-1.3,1-2.3,2.3-2.3
		C776.2,211.5,777.2,212.5,777.2,213.8z"/>
	<path class="st0" d="M803.1,23.9c2.1,0,3.8-1.7,3.8-3.7c0-2.1-1.7-3.7-3.8-3.7c-2.1,0-3.8,1.7-3.8,3.7
		C799.3,22.2,801,23.9,803.1,23.9z"/>
	<path class="st0" d="M747.4,48.3c2.1,0,3.8-1.7,3.8-3.7c0-2.1-1.7-3.7-3.8-3.7c-2.1,0-3.8,1.7-3.8,3.7
		C743.7,46.6,745.4,48.3,747.4,48.3z"/>
	<path class="st0" d="M664.6,79c2.1,0,3.8-1.7,3.8-3.7c0-2.1-1.7-3.7-3.8-3.7c-0.1,0-0.2,0-0.2,0V20.1h-0.8v51.5
		c-1.6,0.4-2.8,1.9-2.8,3.6C660.9,77.3,662.6,79,664.6,79z"/>
	<path class="st0" d="M635.5,22.8v76.1c-1.3,0.3-2.3,1.5-2.3,3c0,1.7,1.4,3.1,3.1,3.1c1.7,0,3.1-1.4,3.1-3.1c0-1.7-1.4-3.1-3.1-3.1
		c0,0,0,0,0,0V22.9c0.1,0,0.2,0,0.2,0c2.1,0,3.8-1.7,3.8-3.7c0-2.1-1.7-3.7-3.8-3.7c-2.1,0-3.8,1.7-3.8,3.7
		C632.7,20.9,633.9,22.4,635.5,22.8z M638.6,101.9c0,1.3-1,2.3-2.3,2.3c-1.3,0-2.3-1-2.3-2.3c0-1.3,1-2.3,2.3-2.3
		C637.5,99.6,638.6,100.6,638.6,101.9z"/>
	<path class="st0" d="M608.7,456.8v-81.8l-54.1-53.6v-52.8c1.9-0.2,3.4-1.8,3.4-3.7c0-2.1-1.7-3.7-3.8-3.7c-2.1,0-3.8,1.7-3.8,3.7
		c0,1.9,1.5,3.5,3.4,3.7v53.2l54.1,53.6v81.4c-1.5,0.2-2.7,1.5-2.7,3c0,1.7,1.4,3.1,3.1,3.1c1.7,0,3.1-1.4,3.1-3.1
		C611.4,458.3,610.2,457,608.7,456.8z M608.3,462.2c-1.3,0-2.3-1-2.3-2.3c0-1.3,1-2.3,2.3-2.3c1.3,0,2.3,1,2.3,2.3
		C610.7,461.2,609.6,462.2,608.3,462.2z"/>
	<path class="st0" d="M802.8,402.8c1.7,0,3.1-1.4,3.1-3.1c0-1.7-1.4-3.1-3.1-3.1c-1.7,0-3.1,1.4-3.1,3.1c0,0.8,0.3,1.6,0.9,2.2
		l-27.4,27.2h-49.2l-29.3,29.1c-0.6-0.4-1.3-0.6-2-0.6c-2.1,0-3.8,1.7-3.8,3.7c0,2.1,1.7,3.7,3.8,3.7c2.1,0,3.8-1.7,3.8-3.7
		c0-1-0.4-2-1.1-2.7l29-28.8h49.2l27.7-27.5C801.7,402.6,802.3,402.8,802.8,402.8z M800.5,399.7c0-1.3,1-2.3,2.3-2.3
		c1.3,0,2.3,1,2.3,2.3c0,1.3-1,2.3-2.3,2.3C801.6,402,800.5,401,800.5,399.7z"/>
	<path class="st0" d="M823.2,375.3c0,1.7,1.4,3.1,3.1,3.1c1.7,0,3.1-1.4,3.1-3.1c0-1.7-1.4-3.1-3.1-3.1
		C824.6,372.2,823.2,373.6,823.2,375.3z M828.6,375.3c0,1.3-1,2.3-2.3,2.3c-1.3,0-2.3-1-2.3-2.3c0-1.3,1-2.3,2.3-2.3
		C827.6,373,828.6,374,828.6,375.3z"/>
	<path class="st0" d="M1107.6,205.4c-1.7,0-3.1,1.4-3.1,3.1c0,0.8,0.3,1.6,0.9,2.1l-55.4,54.9h-21c-0.2-1.9-1.8-3.4-3.7-3.4
		c-2.1,0-3.8,1.7-3.8,3.7c0,2.1,1.7,3.7,3.8,3.7c1.9,0,3.5-1.5,3.7-3.4h21.3L1106,211c0.5,0.3,1,0.5,1.6,0.5c1.7,0,3.1-1.4,3.1-3.1
		C1110.7,206.7,1109.3,205.4,1107.6,205.4z M1107.6,210.7c-0.4,0-0.8-0.1-1.1-0.3l0,0l-0.5-0.5l-0.1,0.1c-0.4-0.4-0.6-1-0.6-1.6
		c0-1.3,1-2.3,2.3-2.3c1.3,0,2.3,1,2.3,2.3C1110,209.7,1108.9,210.7,1107.6,210.7z"/>
	<path class="st0" d="M969.7,293.9c0-0.6-0.2-1.1-0.5-1.6l54.5-54.1l0.1-0.1v-28.4l51.7-51.2c0.6,0.4,1.3,0.7,2.1,0.7
		c2.1,0,3.8-1.7,3.8-3.7c0-2.1-1.7-3.7-3.8-3.7c-2.1,0-3.8,1.7-3.8,3.7c0,1,0.4,1.9,1.1,2.6l-51.8,51.3l-0.1,0.1v28.4l-54.4,53.9
		c-0.6-0.5-1.3-0.9-2.2-0.9c-1.7,0-3.1,1.4-3.1,3.1c0,1.7,1.4,3.1,3.1,3.1C968.3,297,969.7,295.6,969.7,293.9z M964.3,293.9
		c0-1.3,1-2.3,2.3-2.3c1.3,0,2.3,1,2.3,2.3c0,1.3-1,2.3-2.3,2.3C965.3,296.2,964.3,295.2,964.3,293.9z"/>
	<path class="st0" d="M1104.6,129.8c-1.7,0-3.1,1.4-3.1,3.1c0,1.7,1.4,3.1,3.1,3.1c1.7,0,3.1-1.4,3.1-3.1c0-0.8-0.3-1.5-0.8-2
		l58.1-57.6l0.1-0.1V15.5h-0.8v57.3l-58,57.5C1105.9,130,1105.3,129.8,1104.6,129.8z M1104.6,135.2c-1.3,0-2.3-1-2.3-2.3
		c0-1.3,1-2.3,2.3-2.3c1.3,0,2.3,1,2.3,2.3C1106.9,134.1,1105.9,135.2,1104.6,135.2z"/>
	<path class="st0" d="M1189.3,51.4c1.7,0,3.1-1.4,3.1-3.1c0-1.7-1.4-3.1-3.1-3.1c-1.7,0-3.1,1.4-3.1,3.1
		C1186.2,50,1187.6,51.4,1189.3,51.4z M1189.3,46c1.3,0,2.3,1,2.3,2.3c0,1.3-1,2.3-2.3,2.3c-1.3,0-2.3-1-2.3-2.3
		C1187,47,1188.1,46,1189.3,46z"/>
	<path class="st0" d="M788.9,366.9c1.7,0,3.1-1.4,3.1-3.1c0-1.7-1.4-3.1-3.1-3.1s-3.1,1.4-3.1,3.1c0,0.8,0.3,1.5,0.8,2L751.1,401
		c-0.5-0.3-1.1-0.5-1.8-0.5c-2.1,0-3.8,1.7-3.8,3.7c0,2.1,1.7,3.7,3.8,3.7c2.1,0,3.8-1.7,3.8-3.7c0-1.1-0.5-2.2-1.4-2.8l35.4-35.1
		C787.6,366.7,788.2,366.9,788.9,366.9z M786.5,363.8c0-1.3,1-2.3,2.3-2.3s2.3,1,2.3,2.3c0,1.3-1,2.3-2.3,2.3
		c-0.6,0-1.1-0.2-1.5-0.6l-0.2-0.2l0,0C786.8,364.9,786.5,364.4,786.5,363.8z"/>
	<path class="st0" d="M941.5,154.6c0,0.6,0.2,1.2,0.5,1.7l-82.2,81.4l-0.1,0.1v54.3l-53.6,53.1c-0.7-0.8-1.7-1.3-2.8-1.3
		c-2.1,0-3.8,1.7-3.8,3.7c0,2.1,1.7,3.7,3.8,3.7c2.1,0,3.8-1.7,3.8-3.7c0-0.7-0.2-1.3-0.5-1.8l53.8-53.3l0.1-0.1v-54.3l82-81.3
		c0.5,0.5,1.3,0.8,2.1,0.8c1.7,0,3.1-1.4,3.1-3.1c0-1.7-1.4-3.1-3.1-3.1C942.9,151.6,941.5,152.9,941.5,154.6z M944.6,152.3
		c1.3,0,2.3,1,2.3,2.3c0,1.3-1,2.3-2.3,2.3c-1.3,0-2.3-1-2.3-2.3C942.3,153.4,943.3,152.3,944.6,152.3z"/>
	<path class="st0" d="M937.6,208.8c-1.7,0-3.1,1.4-3.1,3.1c0,1.7,1.4,3.1,3.1,3.1c1.7,0,3.1-1.4,3.1-3.1c0-0.7-0.3-1.4-0.7-1.9
		l55.1-54.6l0.1-0.1V99.4l53.2-52.8l-0.5-0.5l-53.3,52.9l-0.1,0.1v55.9l-55,54.5C939,209.1,938.3,208.8,937.6,208.8z M937.6,214.2
		c-1.3,0-2.3-1-2.3-2.3c0-1.3,1-2.3,2.3-2.3c1.3,0,2.3,1,2.3,2.3C940,213.2,938.9,214.2,937.6,214.2z"/>
	<path class="st0" d="M751,235.3c0-1.7-1.4-3.1-3.1-3.1c-1.7,0-3.1,1.4-3.1,3.1c0,1.6,1.3,2.9,2.9,3.1v24c-1.6,0.4-2.8,1.9-2.8,3.6
		c0,2.1,1.7,3.7,3.8,3.7c2.1,0,3.8-1.7,3.8-3.7c0-2.1-1.7-3.7-3.8-3.7c-0.1,0-0.2,0-0.2,0v-23.9C749.9,238.1,751,236.9,751,235.3z
		 M745.6,235.3c0-1.3,1-2.3,2.3-2.3c1.3,0,2.3,1,2.3,2.3c0,1.3-1,2.3-2.3,2.3C746.7,237.6,745.6,236.6,745.6,235.3z"/>
	<path class="st0" d="M796.4,150.8c0-1.7-1.4-3.1-3.1-3.1c-1.7,0-3.1,1.4-3.1,3.1c0,1.7,1.4,3.1,3.1,3.1
		C795.1,153.9,796.4,152.5,796.4,150.8z M791,150.8c0-1.3,1-2.3,2.3-2.3c1.3,0,2.3,1,2.3,2.3c0,1.3-1,2.3-2.3,2.3
		C792.1,153.1,791,152.1,791,150.8z"/>
	<path class="st0" d="M858,107.6c1.7,0,3.1-1.4,3.1-3.1c0-1.6-1.2-2.8-2.7-3V43.8h-0.8v57.7c-1.5,0.2-2.7,1.5-2.7,3
		C854.9,106.2,856.3,107.6,858,107.6z M858,102.2c1.3,0,2.3,1,2.3,2.3c0,1.3-1,2.3-2.3,2.3c-1.3,0-2.3-1-2.3-2.3
		C855.6,103.2,856.7,102.2,858,102.2z"/>
	<path class="st0" d="M884.2,76.8c1.7,0,3.1-1.4,3.1-3.1c0-0.5-0.2-1.1-0.4-1.5l25-24.8c0.7,0.5,1.5,0.9,2.4,0.9
		c2.1,0,3.8-1.7,3.8-3.7c0-2.1-1.7-3.7-3.8-3.7c-2.1,0-3.8,1.7-3.8,3.7c0,0.9,0.3,1.7,0.8,2.3l-24.9,24.7c-0.6-0.6-1.4-1-2.2-1
		c-1.7,0-3.1,1.4-3.1,3.1C881.1,75.4,882.5,76.8,884.2,76.8z M884.2,71.4c0.7,0,1.3,0.3,1.7,0.7l0,0l0.1,0.1
		c0.3,0.4,0.5,0.9,0.5,1.5c0,1.3-1,2.3-2.3,2.3c-1.3,0-2.3-1-2.3-2.3C881.8,72.4,882.9,71.4,884.2,71.4z"/>
	<path class="st0" d="M956.1,104.1c1.7,0,3.1-1.4,3.1-3.1c0-1.7-1.4-3.1-3.1-3.1c-1.7,0-3.1,1.4-3.1,3.1
		C953,102.7,954.4,104.1,956.1,104.1z M956.1,98.7c1.3,0,2.3,1,2.3,2.3c0,1.3-1,2.3-2.3,2.3c-1.3,0-2.3-1-2.3-2.3
		C953.8,99.8,954.8,98.7,956.1,98.7z"/>
	<path class="st0" d="M1050.8,47.5c1.7,0,3.1-1.4,3.1-3.1c0-1.7-1.4-3.1-3.1-3.1c-1.7,0-3.1,1.4-3.1,3.1
		C1047.7,46.1,1049,47.5,1050.8,47.5z M1050.8,42.1c1.3,0,2.3,1,2.3,2.3c0,1.3-1,2.3-2.3,2.3c-1.3,0-2.3-1-2.3-2.3
		C1048.4,43.2,1049.5,42.1,1050.8,42.1z"/>
	<path class="st0" d="M1068.3,34.8c1.7,0,3.1-1.4,3.1-3.1c0-1.7-1.4-3.1-3.1-3.1c-1.7,0-3.1,1.4-3.1,3.1
		C1065.2,33.4,1066.6,34.8,1068.3,34.8z M1068.3,29.4c1.3,0,2.3,1,2.3,2.3c0,1.3-1,2.3-2.3,2.3c-1.3,0-2.3-1-2.3-2.3
		C1066,30.4,1067,29.4,1068.3,29.4z"/>
	<path class="st0" d="M883.6,132.1c1.7,0,3.1-1.4,3.1-3.1c0-0.5-0.1-1-0.4-1.4l0.1,0.1l54.5-54l0.1-0.1V22.9h-0.8v50.2L885.9,127
		c-0.6-0.7-1.4-1.1-2.3-1.1c-1.7,0-3.1,1.4-3.1,3.1C880.5,130.7,881.9,132.1,883.6,132.1z M883.6,126.7c1.3,0,2.3,1,2.3,2.3
		c0,1.3-1,2.3-2.3,2.3s-2.3-1-2.3-2.3C881.3,127.7,882.3,126.7,883.6,126.7z"/>
	<path class="st0" d="M554.6,456.8v-54.3l-56.2-55.7v-45.5c1.9-0.2,3.4-1.8,3.4-3.7c0-2.1-1.7-3.7-3.8-3.7c-2.1,0-3.8,1.7-3.8,3.7
		c0,1.9,1.5,3.5,3.4,3.7v45.8l56.2,55.7v54c-1.5,0.2-2.7,1.5-2.7,3c0,1.7,1.4,3.1,3.1,3.1c1.7,0,3.1-1.4,3.1-3.1
		C557.4,458.3,556.2,457,554.6,456.8z M554.3,462.2c-1.3,0-2.3-1-2.3-2.3c0-1.3,1-2.3,2.3-2.3c1.3,0,2.3,1,2.3,2.3
		C556.6,461.2,555.5,462.2,554.3,462.2z"/>
	<path class="st0" d="M555.8,374.9c-0.5,0-1,0.2-1.5,0.4l-30.1-29.9v-52.6l-79.1-78.4c0.5-0.6,0.9-1.5,0.9-2.3
		c0-2.1-1.7-3.7-3.8-3.7c-2.1,0-3.8,1.7-3.8,3.7c0,2.1,1.7,3.7,3.8,3.7c0.9,0,1.7-0.3,2.4-0.9l78.9,78.2v52.6l30.3,30
		c-0.6,0.6-1,1.3-1,2.2c0,1.7,1.4,3.1,3.1,3.1c1.7,0,3.1-1.4,3.1-3.1C558.9,376.3,557.5,374.9,555.8,374.9z M555.8,380.3
		c-1.3,0-2.3-1-2.3-2.3c0-1.3,1-2.3,2.3-2.3c1.3,0,2.3,1,2.3,2.3C558.2,379.2,557.1,380.3,555.8,380.3z"/>
	<path class="st0" d="M608.7,347.5v-54.6l-28.2-27.9v-50.1c1.9-0.2,3.4-1.8,3.4-3.7c0-2.1-1.7-3.7-3.8-3.7c-2.1,0-3.8,1.7-3.8,3.7
		c0,1.9,1.5,3.5,3.4,3.7v50.4l28.2,27.9v54.3c-1.5,0.2-2.7,1.5-2.7,3c0,1.7,1.4,3.1,3.1,3.1c1.7,0,3.1-1.4,3.1-3.1
		C611.4,349,610.2,347.7,608.7,347.5z M608.3,352.8c-1.3,0-2.3-1-2.3-2.3c0-1.3,1-2.3,2.3-2.3c1.3,0,2.3,1,2.3,2.3
		C610.7,351.8,609.6,352.8,608.3,352.8z"/>
	<path class="st0" d="M610.4,265.1c-1.7,0-3.1,1.4-3.1,3.1c0,1.7,1.4,3.1,3.1,3.1c1.7,0,3.1-1.4,3.1-3.1
		C613.5,266.5,612.1,265.1,610.4,265.1z M610.4,270.5c-1.3,0-2.3-1-2.3-2.3c0-1.3,1-2.3,2.3-2.3c1.3,0,2.3,1,2.3,2.3
		C612.7,269.4,611.7,270.5,610.4,270.5z"/>
	<path class="st0" d="M551.6,50.3v52.3l28.2,28v50c-1.9,0.2-3.4,1.8-3.4,3.7c0,2.1,1.7,3.7,3.8,3.7c2.1,0,3.8-1.7,3.8-3.7
		c0-1.9-1.5-3.5-3.4-3.7v-50.3l-28.2-28v-52c1.4-0.3,2.4-1.5,2.4-3c0-1.7-1.4-3.1-3.1-3.1s-3.1,1.4-3.1,3.1
		C548.5,48.9,549.9,50.3,551.6,50.3z M551.6,45c1.3,0,2.3,1,2.3,2.3c0,1.3-1,2.3-2.3,2.3c-1.3,0-2.3-1-2.3-2.3
		C549.3,46,550.3,45,551.6,45z"/>
	<path class="st0" d="M522.3,129.8c0,1.7,1.4,3.1,3.1,3.1c1.7,0,3.1-1.4,3.1-3.1c0-1.6-1.3-3-2.9-3.1V30.4c0.2,0,0.4,0.1,0.6,0.1
		c2.1,0,3.8-1.7,3.8-3.7c0-2.1-1.7-3.7-3.8-3.7c-2.1,0-3.8,1.7-3.8,3.7c0,1.6,1,2.9,2.4,3.5v96.6
		C523.3,127.1,522.3,128.3,522.3,129.8z M527.7,129.8c0,1.3-1,2.3-2.3,2.3c-1.3,0-2.3-1-2.3-2.3c0-1.3,1-2.3,2.3-2.3
		C526.7,127.5,527.7,128.5,527.7,129.8z"/>
	<path class="st0" d="M470.9,56v41.3c-1.6,0.4-2.7,1.9-2.7,3.6c0,2.1,1.7,3.7,3.8,3.7c2.1,0,3.8-1.7,3.8-3.7c0-2.1-1.7-3.7-3.8-3.7
		c-0.1,0-0.2,0-0.3,0V55.9c1.5-0.2,2.6-1.5,2.6-3c0-1.7-1.4-3.1-3.1-3.1c-1.7,0-3.1,1.4-3.1,3.1C468.1,54.5,469.4,55.8,470.9,56z
		 M471.2,50.6c1.3,0,2.3,1,2.3,2.3c0,1.3-1,2.3-2.3,2.3c-1.3,0-2.3-1-2.3-2.3C468.9,51.6,469.9,50.6,471.2,50.6z"/>
	<path class="st0" d="M414.5,42.4v113.2l25.6,25.4c-0.5,0.6-0.9,1.5-0.9,2.3c0,2.1,1.7,3.7,3.8,3.7c2.1,0,3.8-1.7,3.8-3.7
		c0-2.1-1.7-3.7-3.8-3.7c-0.9,0-1.7,0.3-2.4,0.8l-25.4-25.2V42.4c1.5-0.2,2.7-1.5,2.7-3c0-1.7-1.4-3.1-3.1-3.1
		c-1.7,0-3.1,1.4-3.1,3.1C411.8,40.9,413,42.2,414.5,42.4z M414.9,37.1c1.3,0,2.3,1,2.3,2.3c0,1.3-1,2.3-2.3,2.3
		c-1.3,0-2.3-1-2.3-2.3C412.6,38.1,413.6,37.1,414.9,37.1z"/>
	<path class="st0" d="M380.9,107.7c1.7,0,3.1-1.4,3.1-3.1c0-1.6-1.2-2.8-2.7-3V43.8h-0.8v57.8c-1.5,0.2-2.7,1.5-2.7,3
		C377.8,106.3,379.2,107.7,380.9,107.7z M380.9,102.3c1.3,0,2.3,1,2.3,2.3c0,1.3-1,2.3-2.3,2.3c-1.3,0-2.3-1-2.3-2.3
		C378.6,103.3,379.6,102.3,380.9,102.3z"/>
	<path class="st0" d="M351.5,129.8c0,1.7,1.4,3.1,3.1,3.1c1.7,0,3.1-1.4,3.1-3.1c0-1.7-1.4-3.1-3.1-3.1c-0.6,0-1.2,0.2-1.7,0.5
		l0.1-0.1l-54.4-53.9V22.9h-0.8v50.6l54.6,54.1C351.8,128.2,351.5,129,351.5,129.8z M354.6,127.5c1.3,0,2.3,1,2.3,2.3
		c0,1.3-1,2.3-2.3,2.3s-2.3-1-2.3-2.3C352.3,128.5,353.3,127.5,354.6,127.5z"/>
	<path class="st0" d="M413.2,189.5v55.7l64.8,64.2c-0.4,0.5-0.7,1.2-0.7,1.9c0,1.7,1.4,3.1,3.1,3.1c1.7,0,3.1-1.4,3.1-3.1
		c0-1.7-1.4-3.1-3.1-3.1c-0.7,0-1.3,0.2-1.9,0.6l-64.5-64v-55.4c1.5-0.2,2.7-1.5,2.7-3c0-1.7-1.4-3.1-3.1-3.1
		c-1.7,0-3.1,1.4-3.1,3.1C410.5,188,411.7,189.3,413.2,189.5z M482.7,311.4c0,1.3-1,2.3-2.3,2.3s-2.3-1-2.3-2.3c0-1.3,1-2.3,2.3-2.3
		S482.7,310.1,482.7,311.4z M413.6,184.2c1.3,0,2.3,1,2.3,2.3c0,1.3-1,2.3-2.3,2.3c-1.3,0-2.3-1-2.3-2.3
		C411.2,185.2,412.3,184.2,413.6,184.2z"/>
	<path class="st0" d="M443,405.8c1.7,0,3.1-1.4,3.1-3.1s-1.4-3.1-3.1-3.1c-0.6,0-1.1,0.2-1.6,0.5l-54.7-54.3l-0.1-0.1h-54.6
		l-50.1-49.6c0.4-0.6,0.7-1.4,0.7-2.2c0-2.1-1.7-3.7-3.8-3.7c-2.1,0-3.8,1.7-3.8,3.7c0,2.1,1.7,3.7,3.8,3.7c1,0,1.9-0.4,2.5-1
		l50.2,49.7l0.1,0.1h54.6l54.6,54.1c-0.5,0.6-0.9,1.3-0.9,2.1C439.9,404.4,441.3,405.8,443,405.8z M445.3,402.7c0,1.3-1,2.3-2.3,2.3
		c-1.3,0-2.3-1-2.3-2.3c0-1.3,1-2.3,2.3-2.3C444.3,400.4,445.3,401.4,445.3,402.7z"/>
	<path class="st0" d="M386.6,398.1c-1.6,0-2.9,1.2-3.1,2.7h-25.5l-26.1-25.9h-25.4c-0.2-1.9-1.8-3.3-3.7-3.3c-2.1,0-3.8,1.7-3.8,3.7
		c0,2.1,1.7,3.7,3.8,3.7c2,0,3.5-1.5,3.7-3.4h25.1l26.1,25.9h25.8c0.2,1.5,1.5,2.7,3.1,2.7c1.7,0,3.1-1.4,3.1-3.1
		C389.7,399.5,388.3,398.1,386.6,398.1z M386.6,403.5c-1.3,0-2.3-1-2.3-2.3c0-1.3,1-2.3,2.3-2.3c1.3,0,2.3,1,2.3,2.3
		C388.9,402.4,387.9,403.5,386.6,403.5z"/>
	<path class="st0" d="M170.6,35.1c1.7,0,3.1-1.4,3.1-3.1c0-1.7-1.4-3.1-3.1-3.1c-1.7,0-3.1,1.4-3.1,3.1
		C167.5,33.7,168.9,35.1,170.6,35.1z M170.6,29.7c1.3,0,2.3,1,2.3,2.3c0,1.3-1,2.3-2.3,2.3c-1.3,0-2.3-1-2.3-2.3
		C168.2,30.8,169.3,29.7,170.6,29.7z"/>
	<path class="st0" d="M110,48.3c1.7,0,3.1-1.4,3.1-3.1c0-1.7-1.4-3.1-3.1-3.1c-1.7,0-3.1,1.4-3.1,3.1
		C106.9,46.9,108.3,48.3,110,48.3z M110,42.9c1.3,0,2.3,1,2.3,2.3c0,1.3-1,2.3-2.3,2.3c-1.3,0-2.3-1-2.3-2.3
		C107.7,44,108.7,42.9,110,42.9z"/>
	<path class="st0" d="M271.3,50.6c1.7,0,3.1-1.4,3.1-3.1c0-1.7-1.4-3.1-3.1-3.1c-1.7,0-3.1,1.4-3.1,3.1
		C268.2,49.2,269.6,50.6,271.3,50.6z M271.3,45.2c1.3,0,2.3,1,2.3,2.3c0,1.3-1,2.3-2.3,2.3c-1.3,0-2.3-1-2.3-2.3
		C269,46.3,270,45.2,271.3,45.2z"/>
	<path class="st0" d="M498.3,184.8c0.6,0,1.2-0.2,1.7-0.5l-0.2,0.2l27,26.8v49.9c-1.9,0.2-3.4,1.8-3.4,3.7c0,2.1,1.7,3.7,3.8,3.7
		c2.1,0,3.8-1.7,3.8-3.7c0-1.9-1.5-3.5-3.4-3.7V211l-27.2-27c0.6-0.6,1-1.4,1-2.3c0-1.7-1.4-3.1-3.1-3.1s-3.1,1.4-3.1,3.1
		C495.2,183.4,496.6,184.8,498.3,184.8z M498.3,179.4c1.3,0,2.3,1,2.3,2.3c0,1.3-1,2.3-2.3,2.3c-1.3,0-2.3-1-2.3-2.3
		C495.9,180.4,497,179.4,498.3,179.4z"/>
	<path class="st0" d="M637,323.5c1.7,0,3.1-1.4,3.1-3.1c0-1.6-1.2-2.9-2.7-3V211.3l28.5-28.3l0.1-0.1v-49.4c1.9-0.2,3.4-1.8,3.4-3.7
		c0-2.1-1.7-3.7-3.8-3.7c-2.1,0-3.8,1.7-3.8,3.7c0,1.9,1.5,3.5,3.4,3.7v49.1l-28.5,28.3l-0.1,0.1v106.5c-1.5,0.2-2.7,1.5-2.7,3
		C633.9,322.2,635.3,323.5,637,323.5z M636.8,318.2h0.4c1.2,0.1,2.1,1.1,2.1,2.3c0,1.3-1,2.3-2.3,2.3c-1.3,0-2.3-1-2.3-2.3
		C634.7,319.3,635.6,318.3,636.8,318.2z"/>
	<path class="st0" d="M609,49.6c1.7,0,3.1-1.4,3.1-3.1c0-1.7-1.4-3.1-3.1-3.1c-1.7,0-3.1,1.4-3.1,3.1
		C605.9,48.2,607.3,49.6,609,49.6z M609,44.2c1.3,0,2.3,1,2.3,2.3c0,1.3-1,2.3-2.3,2.3c-1.3,0-2.3-1-2.3-2.3
		C606.6,45.2,607.7,44.2,609,44.2z"/>
	<path class="st0" d="M608.3,132.9c1.7,0,3.1-1.4,3.1-3.1c0-1.6-1.2-2.9-2.7-3V75.3h-0.8v51.5c-1.5,0.2-2.7,1.5-2.7,3
		C605.2,131.5,606.6,132.9,608.3,132.9z M608.3,127.5c1.3,0,2.3,1,2.3,2.3c0,1.3-1,2.3-2.3,2.3c-1.3,0-2.3-1-2.3-2.3
		C606,128.5,607,127.5,608.3,127.5z"/>
	<path class="st0" d="M746,77.5c1.7,0,3.1-1.4,3.1-3.1c0-0.7-0.3-1.4-0.7-1.9l26.9-26.7l-0.5-0.5L747.9,72c-0.5-0.4-1.2-0.7-1.9-0.7
		c-1.7,0-3.1,1.4-3.1,3.1C742.9,76.2,744.3,77.5,746,77.5z M746,72.2c1.3,0,2.3,1,2.3,2.3c0,1.3-1,2.3-2.3,2.3c-1.3,0-2.3-1-2.3-2.3
		C743.7,73.2,744.7,72.2,746,72.2z"/>
	<path class="st0" d="M772.3,96.4c0,0.7,0.3,1.4,0.7,1.9l-55.4,55l-0.1,0.1V206c-1.6,0.4-2.9,1.9-2.9,3.6c0,2.1,1.7,3.7,3.8,3.7
		c2.1,0,3.8-1.7,3.8-3.7c0-2.1-1.7-3.7-3.8-3.7c0,0-0.1,0-0.1,0v-52.2l55.3-54.8c0.5,0.4,1.2,0.7,1.9,0.7c1.7,0,3.1-1.4,3.1-3.1
		c0-1.7-1.4-3.1-3.1-3.1C773.6,93.4,772.3,94.7,772.3,96.4z M775.4,94.1c1.3,0,2.3,1,2.3,2.3c0,1.3-1,2.3-2.3,2.3
		c-1.3,0-2.3-1-2.3-2.3C773,95.2,774.1,94.1,775.4,94.1z"/>
	<path class="st0" d="M691.4,431.3v-27c1.9-0.2,3.4-1.8,3.4-3.7c0-2.1-1.7-3.7-3.8-3.7c-2.1,0-3.8,1.7-3.8,3.7
		c0,1.9,1.5,3.5,3.4,3.7V431l-48.5,48.1l0.5,0.5l48.6-48.2L691.4,431.3z"/>
	<path class="st0" d="M637.4,384.8l41.5-41.2c0.6,0.6,1.3,0.9,2.2,0.9c1.7,0,3.1-1.4,3.1-3.1c0-1.7-1.4-3.1-3.1-3.1
		c-1.7,0-3.1,1.4-3.1,3.1c0,0.6,0.2,1.1,0.4,1.5l-41.7,41.4l-0.1,0.1v71.7h0.8V384.8z M681.2,339.2c1.3,0,2.3,1,2.3,2.3
		c0,1.3-1,2.3-2.3,2.3c-1.3,0-2.3-1-2.3-2.3C678.8,340.2,679.9,339.2,681.2,339.2z"/>
	<path class="st0" d="M720.9,349.9v-53.2c1.9-0.2,3.4-1.8,3.4-3.7c0-2.1-1.7-3.7-3.8-3.7c-2.1,0-3.8,1.7-3.8,3.7
		c0,1.9,1.5,3.5,3.4,3.7v52.9l-53.2,52.7c-0.5-0.3-1.1-0.5-1.7-0.5c-1.7,0-3.1,1.4-3.1,3.1c0,1.7,1.4,3.1,3.1,3.1s3.1-1.4,3.1-3.1
		c0-0.8-0.3-1.5-0.8-2.1l53.3-52.8L720.9,349.9z M665.2,407.2c-1.3,0-2.3-1-2.3-2.3c0-1.3,1-2.3,2.3-2.3c1.3,0,2.3,1,2.3,2.3
		C667.5,406.2,666.5,407.2,665.2,407.2z"/>
	<path class="st0" d="M693.5,265.7l-0.1,0.1v51.3c-0.1,0-0.3,0-0.4,0c-2.1,0-3.8,1.7-3.8,3.7c0,2.1,1.7,3.7,3.8,3.7
		c2.1,0,3.8-1.7,3.8-3.7c0-1.7-1.1-3-2.6-3.5v-51.2l52.1-51.6l0.1-0.1v-55.7c1.5-0.2,2.7-1.5,2.7-3c0-1.7-1.4-3.1-3.1-3.1
		c-1.7,0-3.1,1.4-3.1,3.1c0,1.6,1.2,2.8,2.7,3v55.4L693.5,265.7z M743.7,155.7c0-1.3,1-2.3,2.3-2.3c1.3,0,2.3,1,2.3,2.3
		c0,1.3-1,2.3-2.3,2.3C744.7,158,743.7,156.9,743.7,155.7z"/>
	<path class="st0" d="M663.7,238.9v78.3c-1.7,0.4-2.9,1.9-2.9,3.6c0,2.1,1.7,3.7,3.8,3.7c2.1,0,3.8-1.7,3.8-3.7
		c0-2.1-1.7-3.7-3.8-3.7c0,0,0,0-0.1,0v-77.9l29.5-29.3c0.5,0.4,1.1,0.6,1.8,0.6c1.7,0,3.1-1.4,3.1-3.1c0-1.7-1.4-3.1-3.1-3.1
		c-1.7,0-3.1,1.4-3.1,3.1c0,0.8,0.3,1.4,0.7,2l-29.6,29.3L663.7,238.9z M695.7,205.2c1.3,0,2.3,1,2.3,2.3c0,1.3-1,2.3-2.3,2.3
		c-1.3,0-2.3-1-2.3-2.3C693.4,206.2,694.4,205.2,695.7,205.2z"/>
	<path class="st0" d="M690.7,130.3v48.5c-1.9,0.2-3.4,1.8-3.4,3.7c0,2.1,1.7,3.7,3.8,3.7c2.1,0,3.8-1.7,3.8-3.7
		c0-1.9-1.5-3.5-3.4-3.7v-48.2l28.7-28.5l-0.5-0.5l-28.8,28.6L690.7,130.3z"/>
	<path class="st0" d="M582.8,402.8c1.5-0.2,2.7-1.5,2.7-3c0-1.7-1.4-3.1-3.1-3.1s-3.1,1.4-3.1,3.1c0,1.6,1.2,2.8,2.7,3V460
		l19.9,19.7l0.5-0.5l-19.6-19.4V402.8z M580.1,399.8c0-1.3,1-2.3,2.3-2.3c1.3,0,2.3,1,2.3,2.3c0,1.3-1,2.3-2.3,2.3
		C581.2,402.1,580.1,401.1,580.1,399.8z"/>
	<path class="st0" d="M610,264.9h0.8v-80.6l25.2-25c0.6,0.5,1.5,0.9,2.4,0.9c2.1,0,3.8-1.7,3.8-3.7c0-2.1-1.7-3.7-3.8-3.7
		c-2.1,0-3.8,1.7-3.8,3.7c0,0.9,0.3,1.7,0.9,2.4L610,184V264.9z"/>
	<path class="st0" d="M748.7,292.4c-0.6-0.5-1.3-0.8-2.1-0.8c-1.7,0-3.1,1.4-3.1,3.1c0,1.7,1.4,3.1,3.1,3.1c1.7,0,3.1-1.4,3.1-3.1
		c0-0.6-0.2-1.2-0.5-1.7l28.7-28.4l0.1-0.1v-22.7c1.9-0.2,3.3-1.8,3.3-3.7c0-2.1-1.7-3.7-3.8-3.7c-2.1,0-3.8,1.7-3.8,3.7
		c0,1.9,1.5,3.5,3.4,3.7v22.4L748.7,292.4z M746.6,297c-1.3,0-2.3-1-2.3-2.3c0-1.3,1-2.3,2.3-2.3c1.3,0,2.3,1,2.3,2.3
		C749,296,747.9,297,746.6,297z"/>
	<path class="st0" d="M832.5,238.5v-55.8c1.5-0.2,2.7-1.5,2.7-3c0-1.7-1.4-3.1-3.1-3.1c-1.7,0-3.1,1.4-3.1,3.1c0,1.6,1.2,2.8,2.7,3
		v55.5l-25.1,24.9c-0.6-0.5-1.5-0.8-2.4-0.8c-2.1,0-3.8,1.7-3.8,3.7c0,2.1,1.7,3.7,3.8,3.7c2.1,0,3.8-1.7,3.8-3.7
		c0-0.9-0.3-1.7-0.9-2.3l25.3-25L832.5,238.5z M829.8,179.7c0-1.3,1-2.3,2.3-2.3c1.3,0,2.3,1,2.3,2.3c0,1.3-1,2.3-2.3,2.3
		C830.8,182,829.8,180.9,829.8,179.7z"/>
	<path class="st0" d="M857.7,125.8l-54.9,54.4l-0.1,0.1V235c-1.4,0.3-2.4,1.5-2.4,3c0,1.7,1.4,3.1,3.1,3.1c1.7,0,3.1-1.4,3.1-3.1
		c0-1.7-1.3-3-3-3.1v-54.3l54.8-54.3L857.7,125.8z M805.7,238c0,1.3-1,2.3-2.3,2.3c-1.3,0-2.3-1-2.3-2.3c0-1,0.7-1.9,1.7-2.2v0.5
		h0.8v-0.6C804.7,235.8,805.7,236.8,805.7,238z"/>
	<polygon class="st0" points="796.2,149.2 832.4,113.4 832.5,113.2 832.5,72.4 831.7,72.4 831.7,112.9 795.6,148.7 	"/>
	<path class="st0" d="M914.6,292.3v-47.9c1.9-0.2,3.4-1.8,3.4-3.7c0-2.1-1.7-3.7-3.8-3.7c-2.1,0-3.8,1.7-3.8,3.7
		c0,1.9,1.5,3.5,3.4,3.7V292L858,347.4c-0.5-0.5-1.3-0.8-2.1-0.8c-1.7,0-3.1,1.4-3.1,3.1c0,1.7,1.4,3.1,3.1,3.1
		c1.7,0,3.1-1.4,3.1-3.1c0-0.6-0.2-1.2-0.5-1.7l56-55.5L914.6,292.3z M855.9,351.9c-1.3,0-2.3-1-2.3-2.3c0-1.3,1-2.3,2.3-2.3
		c1.3,0,2.3,1,2.3,2.3C858.2,350.9,857.2,351.9,855.9,351.9z"/>
	<path class="st0" d="M1026.2,120.3c-0.5-0.3-1.1-0.5-1.7-0.5c-1.7,0-3.1,1.4-3.1,3.1c0,1.7,1.4,3.1,3.1,3.1c1.7,0,3.1-1.4,3.1-3.1
		c0-0.8-0.3-1.5-0.8-2.1l78.1-77.5c0.7,0.7,1.7,1.2,2.7,1.2c2.1,0,3.8-1.7,3.8-3.7c0-2.1-1.7-3.7-3.8-3.7c-2.1,0-3.8,1.7-3.8,3.7
		c0,0.7,0.2,1.4,0.6,2L1026.2,120.3z M1024.5,125.2c-1.3,0-2.3-1-2.3-2.3c0-1.3,1-2.3,2.3-2.3c1.3,0,2.3,1,2.3,2.3
		C1026.8,124.2,1025.8,125.2,1024.5,125.2z"/>
	<path class="st0" d="M1024.5,289.9c-1.7,0-3.1,1.4-3.1,3.1c0,0.6,0.2,1.2,0.5,1.7l-50.5,50.1c-0.6-0.4-1.3-0.7-2.1-0.7
		c-2.1,0-3.8,1.7-3.8,3.7c0,2.1,1.7,3.7,3.8,3.7c2.1,0,3.8-1.7,3.8-3.7c0-1-0.4-1.9-1.1-2.6l50.4-50c0.5,0.5,1.3,0.8,2,0.8
		c1.7,0,3.1-1.4,3.1-3.1C1027.6,291.3,1026.2,289.9,1024.5,289.9z M1024.5,295.3c-1.3,0-2.3-1-2.3-2.3c0-1.3,1-2.3,2.3-2.3
		c1.3,0,2.3,1,2.3,2.3C1026.8,294.2,1025.8,295.3,1024.5,295.3z"/>
	<path class="st0" d="M162.4,127.5c-0.3,0.5-0.5,1.1-0.5,1.8c0,2.1,1.7,3.7,3.8,3.7c2.1,0,3.8-1.7,3.8-3.7c0-2.1-1.7-3.7-3.8-3.7
		c-1.1,0-2.2,0.5-2.8,1.3l-24.6-24.4h-27.8l-27.2-27c0.5-0.5,0.8-1.2,0.8-2c0-1.7-1.4-3.1-3.1-3.1c-1.7,0-3.1,1.4-3.1,3.1
		c0,1.7,1.4,3.1,3.1,3.1c0.7,0,1.3-0.2,1.8-0.6l27.4,27.1l0.1,0.1h27.8L162.4,127.5z M78.6,73.5c0-1.3,1-2.3,2.3-2.3
		c1.3,0,2.3,1,2.3,2.3c0,1.3-1,2.3-2.3,2.3C79.7,75.8,78.6,74.7,78.6,73.5z"/>
</g>
<text transform="matrix(1 0 0 1 707.4547 471.0374)" class="st0 st1 st2">sourcecode.com.cn</text>
<text transform="matrix(1 0 0 1 633.4214 342.097)" class="st0 st3 st2">源代码</text>
<text transform="matrix(1 0 0 1 455.2188 410.2025)" class="st0 st1 st2">WordPress</text>
<text transform="matrix(1 0 0 1 566.8946 387.7532)" class="st0 st1 st2">PHP</text>
<text transform="matrix(1 0 0 1 231.5743 295.6614)" class="st0 st1 st2">Javascript</text>
<text transform="matrix(1 0 0 1 472.6129 289.8392)" class="st0 st1 st2">HTML5</text>
<text transform="matrix(1 0 0 1 360.5645 326.4944)" class="st0 st1 st2">CSS3</text>
<text transform="matrix(1 0 0 1 204.8311 352.4056)" class="st0 st1 st2">WooCommerce</text>
<text transform="matrix(1 0 0 1 275.4474 395.7601)" class="st0 st1 st2">BuddyPress</text>
<text transform="matrix(1 0 0 1 373.881 418.471)" class="st0 st1 st2">bbPress</text>
<text transform="matrix(1 0 0 1 264.981 148.7523)" class="st0 st1 st2">Python</text>
<text transform="matrix(1 0 0 1 657.4498 423.0325)" class="st0 st1 st2">MySQL</text>
<text transform="matrix(1 0 0 1 1068.9352 204.3206)" class="st0 st1 st2">Nodejs</text>
<text transform="matrix(1 0 0 1 1125.2506 212.5345)" class="st0 st1 st2">MongoDB</text>
<text transform="matrix(1 0 0 1 576.418 200.8343)" class="st0 st1 st2">API</text>
<text transform="matrix(1 0 0 1 433.4185 200.8343)" class="st0 st1 st2">JSON</text>
<text transform="matrix(1 0 0 1 263.8648 273.3655)" class="st0 st1 st2">jQuery</text>
<text transform="matrix(1 0 0 1 212.4044 228.1663)" class="st0 st1 st2">MVC</text>
<text transform="matrix(1 0 0 1 792.814 392.6116)" class="st0 st1 st2">REST</text>
<text transform="matrix(1 0 0 1 819.2427 440.3577)" class="st0 st1 st2">Git</text>
<text transform="matrix(1 0 0 1 114.4981 158.9984)" class="st0 st1 st2">Ajax</text>
<text transform="matrix(1 0 0 1 714.3941 278.8275)" class="st0 st1 st2">CDN</text>
<text transform="matrix(1 0 0 1 838.1734 171.1478)" class="st0 st1 st2">Android</text>
<text transform="matrix(1 0 0 1 957.5308 362.1341)" class="st0 st1 st2">Google</text>
<text transform="matrix(1 0 0 1 932.3648 380.3304)" class="st0 st1 st2">Apple</text>
<text transform="matrix(1 0 0 1 358.2769 379.7493)" class="st0 st1 st2">SCSS</text>
<text transform="matrix(1 0 0 1 350.3858 204.3206)" class="st0 st1 st2">XML</text>
<text transform="matrix(1 0 0 1 36.8482 76.637)" class="st0 st1 st2">Bootstrap</text>
<text transform="matrix(1 0 0 1 134.358 135.0306)" class="st0 st1 st2">React</text>
<text transform="matrix(1 0 0 1 271.131 91.4818)" class="st0 st1 st2">Flask</text>
<text transform="matrix(1 0 0 1 264.981 117.1946)" class="st0 st1 st2">Django</text>
<text transform="matrix(1 0 0 1 309.2247 261.8333)" class="st0 st1 st2">AngularJS</text>
<text transform="matrix(1 0 0 1 537.9771 135.4505)" class="st0 st1 st2">Shell</text>
<text transform="matrix(1 0 0 1 498.9024 174.223)" class="st0 st1 st2">Java</text>
<text transform="matrix(1 0 0 1 914.4888 225.9847)" class="st0 st1 st2">Coffeescript</text>
<text transform="matrix(1 0 0 1 871.7232 308.5462)" class="st0 st1 st2">Ruby</text>
<text transform="matrix(1 0 0 1 775.1304 352.0911)" class="st0 st1 st2">Swift</text>
<text transform="matrix(1 0 0 1 723.567 92.0735)" class="st0 st1 st2">Markdown</text>
<text transform="matrix(1 0 0 1 983.4263 51.2503)" class="st0 st1 st2">Sketch</text>
<text transform="matrix(1 0 0 1 428.7066 304.1985)" class="st0 st1 st2">R</text>
<text transform="matrix(1 0 0 1 800.1822 281.1341)" class="st0 st1 st2">C#</text>
<text transform="matrix(1 0 0 1 947.0572 131.1868)" class="st0 st1 st2">C++</text>
<text transform="matrix(1 0 0 1 529.1119 281.1331)" class="st0 st1 st2">GO</text>
<text transform="matrix(1 0 0 1 867.8316 144.5237)" class="st0 st1 st2">Haskell</text>
<text transform="matrix(1 0 0 1 871.7242 91.4818)" class="st0 st1 st2">Objective-C</text>
<text transform="matrix(1 0 0 1 947.5269 307.7757)" class="st0 st1 st2">Scala</text>
<text transform="matrix(1 0 0 1 786.6636 166.5355)" class="st0 st1 st2">Gulp</text>
<text transform="matrix(1 0 0 1 1058.1285 117.1946)" class="st0 st1 st2">Grunt</text>
<text transform="matrix(1 0 0 1 832.2916 354.1155)" class="st0 st1 st2">SVG</text>
<text transform="matrix(1 0 0 1 1042.6617 297.512)" class="st0 st1 st2">DNS</text>
<text transform="matrix(1 0 0 1 1225.1891 122.9944)" class="st0 st1 st2">Docker</text>
<text transform="matrix(1 0 0 1 1113.5885 148.7864)" class="st0 st1 st2">Composer</text>
<text transform="matrix(1 0 0 1 340.5206 92.0735)" class="st0 st1 st2">HTTPS</text>
<text transform="matrix(1 0 0 1 1235.9528 48.6605)" class="st0 st1 st2">DOM</text>
<text transform="matrix(1 0 0 1 713.3189 226.8821)" class="st0 st1 st2">AI</text>
<text transform="matrix(1 0 0 1 741.8824 315.3987)" class="st0 st1 st2">GNU</text>
<text transform="matrix(1 0 0 1 672.2154 121.3294)" class="st0 st1 st2">DNS</text>
<text transform="matrix(1 0 0 1 817.7886 296.7444)" class="st0 st1 st2">SSL</text>
</svg>
