<svg xmlns="http://www.w3.org/2000/svg" viewBox="0 0 1563.13 467.56"><defs><style>.cls-1{fill:#fff;}</style></defs><title>Source Code Logo</title><g id="Layer_2" data-name="Layer 2"><g id="bg"><g id="logo"><path class="cls-1" d="M231.52,249.63a25.75,25.75,0,1,1,25.74-25.74A25.78,25.78,0,0,1,231.52,249.63Zm0-37.73a12,12,0,1,0,12,12A12,12,0,0,0,231.52,211.9Z"/><path class="cls-1" d="M287.61,144.09a25.75,25.75,0,1,1,25.74-25.75A25.78,25.78,0,0,1,287.61,144.09Zm0-37.73a12,12,0,1,0,12,12A12,12,0,0,0,287.61,106.36Z"/><path class="cls-1" d="M345.22,304.19A25.75,25.75,0,1,1,371,278.44,25.78,25.78,0,0,1,345.22,304.19Zm0-37.73a12,12,0,1,0,12,12A12,12,0,0,0,345.22,266.46Z"/><path class="cls-1" d="M412.52,224.65a25.75,25.75,0,1,1,25.75-25.75A25.78,25.78,0,0,1,412.52,224.65Zm0-37.73a12,12,0,1,0,12,12A12,12,0,0,0,412.52,186.92Z"/><rect class="cls-1" x="156.05" y="192.78" width="16.31" height="149.91"/><rect class="cls-1" x="278.81" y="137.33" width="20.52" height="328.23"/><rect class="cls-1" x="222.98" y="245.17" width="16.31" height="220.27"/><rect class="cls-1" x="337.19" y="295.14" width="16.31" height="170.3"/><rect class="cls-1" x="404.62" y="221.72" width="16.32" height="156.54"/><rect class="cls-1" x="156.05" y="326.37" width="75.72" height="16.31"/><rect class="cls-1" x="343.82" y="363.59" width="77.13" height="16.31"/><path class="cls-1" d="M164.21,200.17A25.75,25.75,0,1,1,190,174.43,25.77,25.77,0,0,1,164.21,200.17Zm0-37.72a12,12,0,1,0,12,12A12,12,0,0,0,164.21,162.45Z"/><path class="cls-1" d="M153.43.49V35.22s-19.22.63-27.72,1.57-30,9.62-31.24,35.76c-.94,19.41,1.06,50.89,0,74.65a143.64,143.64,0,0,1-2.16,21.13C88,189.59,74.67,224.56,30.87,232.76c0,0-23.62,2.05-30.87,1.41v-35s23.9-1.06,34.34-6.93c10.08-5.67,26.08-17,26.78-47.26.79-33.89.32-59.88,0-77.18C60.84,52.39,68.37,21.51,97.9,7.57c10-4.72,25.76-7.08,34.74-7.4C147.6-.35,153.43.49,153.43.49Z"/><path class="cls-1" d="M0,233.78v34.73s19.22.63,27.72,1.58S57,279.7,58.28,305.85,60.49,380,64.9,401.62c4.34,21.26,17.33,55.45,61.12,63.64,0,0,23.94,2.84,31.19,2.21v-35s-23.91-1.06-34.34-6.93c-10.08-5.68-25.09-17-26.78-47.26-1.81-32.29-5-61.75-4.73-77.19s-6.3-46.31-35.83-60.25c-10-4.73-25.28-8-34.26-8.27C6.3,232.08,0,233.78,0,233.78Z"/><rect class="cls-1" x="154.06" y="432.18" width="85.26" height="35.28"/><path class="cls-1" d="M419.21.49V35.22s19.22.63,27.73,1.57,29.3,9.62,30.56,35.76,2.2,74.2,6.61,95.78c4.35,21.26,17.65,56.23,61.44,64.43,0,0,23.63,2.05,30.87,1.41v-35s-23.9-1.06-34.34-6.93C532,186.6,517,175.24,515.3,145c-1.81-32.29-5-61.74-4.72-77.18s-6.3-46.32-35.84-60.26C464.73,2.85,449,.49,440,.17,425-.35,419.21.49,419.21.49Z"/><path class="cls-1" d="M576.42,233.78v34.73s-19.21.63-27.72,1.58-29.3,9.61-30.56,35.76-2.21,74.19-6.62,95.77c-4.34,21.26-17.32,55.45-61.12,63.64,0,0-23.94,2.84-31.19,2.21v-35s23.91-1.06,34.34-6.93c10.09-5.68,25.09-17,26.78-47.26,1.81-32.29,5.05-61.75,4.73-77.19s6.3-46.31,35.84-60.25c10-4.73,25.28-8,34.26-8.27C570.12,232.08,576.42,233.78,576.42,233.78Z"/><rect class="cls-1" x="337.1" y="432.18" width="85.26" height="35.28"/><path class="cls-1" d="M680.12,293.34c17.89-39.88,28.74-72.43,39.59-110.84h22.87c-11.73,42.52-23.17,75.65-39.29,110.84ZM721.47,78.1,691.26,16.52h23.17L744.34,78.1Zm2.64,79.18L693.61,95.7h23.16L747,157.28ZM781.87,213c0,27.86-5,56.31-15.83,80.65H742.87c11.73-27,16.72-50.44,16.72-80.94V44.38c0-10.56,8.5-19.65,19.06-19.65H957.53V41.45H793a11.14,11.14,0,0,0-11.15,11.14Zm7,74.49a426.23,426.23,0,0,0,17.6-80.35h22.28C825,234.69,819.7,262,811.2,287.48Zm47.8-11.15h19.36a5.39,5.39,0,0,0,5.57-5.57V188.65H825a19.4,19.4,0,0,1-19.65-19.35V95.11A19.65,19.65,0,0,1,825,75.46h27.86l7-26.1h22.28l-7,26.1H927a19.4,19.4,0,0,1,19.35,19.65V169.3A19.14,19.14,0,0,1,927,188.65H883.92v85a19.33,19.33,0,0,1-19.35,19.36H836.71Zm87.39-173A11.14,11.14,0,0,0,913,92.18H838.76a11.14,11.14,0,0,0-11.14,11.14v20.53H924.1ZM913,172.23a11.14,11.14,0,0,0,11.15-11.14V140.56H827.62v20.53a11.14,11.14,0,0,0,11.14,11.14Zm22,115.25c-8.21-25.51-13.49-52.79-17.6-80.35h22.29a477.94,477.94,0,0,0,17.59,80.35Z"/><path class="cls-1" d="M1027.47,293.34V125.9c-6.16,13.49-12.61,26.1-19.36,38.12H984.36c27.27-49.26,49.26-103.22,61.29-148.67h22.58c-7.92,26.68-16.72,53.37-27,78.59h8.5v199.4ZM1148,16.23a651.51,651.51,0,0,0,26.39,107.32L1261.47,113v16.71l-81.22,10c20.82,56,48.38,107.33,78.88,153.66h-25.51a705.51,705.51,0,0,1-75.37-151l-87.09,10.27V135.87l81.52-9.68a716.9,716.9,0,0,1-27-110Zm71.55,77.12-21.7-63.93h22.29l21.7,63.93Z"/><path class="cls-1" d="M1287.48,192.76c14.37-45.45,25.51-90.61,31.67-136.36h-31.38V39.69H1390.7V56.4h-49.85a720.48,720.48,0,0,1-13.49,72.73,18.79,18.79,0,0,1,5.86-.88h34.9a19.39,19.39,0,0,1,19.35,19.64V272.23a19.58,19.58,0,0,1-19.35,19.65h-34.9a19.4,19.4,0,0,1-19.35-19.65V179.86l-4.11,12.9Zm78-42.23a5.77,5.77,0,0,0-5.57-5.57h-18.77a5.73,5.73,0,0,0-5.28,5.57V269.59a5.73,5.73,0,0,0,5.28,5.57h18.77a5.77,5.77,0,0,0,5.57-5.57Zm34.6,80.94V214.75h119.35v16.72Zm88.27,61.29h55.42a19.41,19.41,0,0,0,19.36-19.65V175.46a19.15,19.15,0,0,0-19.36-19.35h-10.85V41.45a19.83,19.83,0,0,0-19.64-19.65H1408.59V38.51h90.9a11.15,11.15,0,0,1,11.15,11.15V156.11h-64.52A11.15,11.15,0,0,1,1435,145V61.09h-22v92.38c0,10.26,9.09,19.06,19.35,19.06H1530a11.07,11.07,0,0,1,10.85,11.14V264.9A11.07,11.07,0,0,1,1530,276h-41.64Z"/><path class="cls-1" d="M968,54A21.94,21.94,0,1,1,989.91,32,22,22,0,0,1,968,54Zm0-32.15A10.21,10.21,0,1,0,978.18,32,10.23,10.23,0,0,0,968,21.81Z"/><path class="cls-1" d="M1468.05,304.38a21.94,21.94,0,1,1,22-21.94A22,22,0,0,1,1468.05,304.38Zm0-32.15a10.21,10.21,0,1,0,10.21,10.21A10.22,10.22,0,0,0,1468.05,272.23Z"/><path class="cls-1" d="M719.5,386.38q-17.78,0-17.78,11.75,0,6.06,4.2,8.64t18.55,6.34q14.35,3.75,20.23,9t5.88,16.43q0,14.26-8.61,21.32t-23.45,7.06a147.18,147.18,0,0,1-26.32-2.64l-5-.92,1.54-11.75Q707.6,454,717.54,454q17.36,0,17.36-14.52,0-5.67-3.92-8.38t-17.64-5.94q-13.73-3.24-20.44-8.91t-6.72-17.95q0-12.27,8.47-18.55t23.45-6.27a163.27,163.27,0,0,1,25.48,2.38l4.9.79-1.26,11.88Q727.62,386.38,719.5,386.38Z"/><path class="cls-1" d="M832.27,455.8q-8.61,11.08-30.31,11.09t-30.38-11.15q-8.69-11.16-8.68-35t8.75-35.51q8.75-11.61,30.31-11.61t30.24,11.55q8.68,11.55,8.68,35.57T832.27,455.8Zm-48.51-9.5q4.75,7.79,18.2,7.79t18.13-7.66q4.7-7.65,4.69-25.67T820,394.56q-4.83-8.18-18-8.18t-18.06,8.18q-4.9,8.19-4.9,26.07T783.76,446.3Z"/><path class="cls-1" d="M873.5,436.53q0,17.57,19.6,17.56t19.6-17.56V375h15.68v61.24q0,16-8.89,23.3T893,466.89q-17.56,0-26.39-7.32t-8.82-23.3V375H873.5Z"/><path class="cls-1" d="M964.92,433.23v32.21H949.38V375h36.4q32.47,0,32.48,28.77,0,19.27-15.68,26.13l15.82,35.51h-17.08l-13.86-32.21Zm37.38-29.3q0-16.23-16.52-16.23H964.92v32.86h21.14q8.4,0,12.32-4.55T1002.3,403.93Z"/><path class="cls-1" d="M1067.82,466.89q-21,0-28.49-10.95t-7.49-36q0-25.06,7.56-35.7t28.42-10.62a128.45,128.45,0,0,1,27.44,3.3l-.56,11.88a152,152,0,0,0-25.2-2.12q-12.6,0-17.08,7.06t-4.48,26.53q0,19.47,4.34,26.53t16.94,7.06a167.54,167.54,0,0,0,25.48-2l.42,12.15A139,139,0,0,1,1067.82,466.89Z"/><path class="cls-1" d="M1111.5,465.44V375H1172v12.8H1127v25.61h36.54v12.67H1127V452.5H1172v12.94Z"/><path class="cls-1" d="M1251.35,466.89q-21,0-28.49-10.95t-7.49-36q0-25.06,7.56-35.7t28.42-10.62a128.3,128.3,0,0,1,27.44,3.3l-.56,11.88a152,152,0,0,0-25.2-2.12q-12.6,0-17.08,7.06t-4.48,26.53q0,19.47,4.34,26.53t16.94,7.06a167.44,167.44,0,0,0,25.48-2l.42,12.15A138.88,138.88,0,0,1,1251.35,466.89Z"/><path class="cls-1" d="M1359.08,455.8q-8.61,11.08-30.31,11.09t-30.38-11.15q-8.69-11.16-8.68-35t8.75-35.51q8.74-11.61,30.31-11.61T1359,385.13q8.68,11.55,8.68,35.57T1359.08,455.8Zm-48.51-9.5q4.76,7.79,18.2,7.79t18.13-7.66q4.69-7.65,4.69-25.67t-4.83-26.2q-4.83-8.18-18-8.18t-18.06,8.18q-4.9,8.19-4.9,26.07T1310.57,446.3Z"/><path class="cls-1" d="M1418.65,465.44h-33.18V375h33.18q22.13,0,30.24,10.56t8.12,33.13a100.49,100.49,0,0,1-1.61,19.46,42.69,42.69,0,0,1-5.67,14.46Q1441.75,465.44,1418.65,465.44Zm22.26-46.72q0-16.37-4.34-23.63t-17.92-7.26H1401V452.5h17.64q13.86,0,18.48-9.63a37.13,37.13,0,0,0,3-10.43A102.75,102.75,0,0,0,1440.91,418.72Z"/><path class="cls-1" d="M1474.93,465.44V375h60.48v12.8h-44.94v25.61H1527v12.67h-36.54V452.5h44.94v12.94Z"/></g></g></g></svg>